<?xml version="1.0" encoding="utf-8"?>
<!-- Generator: Adobe Illustrator 24.1.0, SVG Export Plug-In . SVG Version: 6.00 Build 0)  -->
<svg version="1.1" id="Capa_1" xmlns="http://www.w3.org/2000/svg" xmlns:xlink="http://www.w3.org/1999/xlink" x="0px" y="0px"
	 viewBox="0 0 50 50" style="enable-background:new 0 0 50 50;" xml:space="preserve">
<style type="text/css">
	.st0{fill:#FFFFFF;}
</style>
<g>
	<path class="st0" d="M25,11c-1.3,0-2.3,1-2.3,2.3s1,2.3,2.3,2.3c1.3,0,2.3-1,2.3-2.3S26.3,11,25,11z M25,14.1
		c-0.5,0-0.8-0.4-0.8-0.8c0-0.5,0.4-0.8,0.8-0.8c0.5,0,0.8,0.4,0.8,0.8C25.8,13.7,25.5,14.1,25,14.1z"/>
	<path class="st0" d="M25,34.4c-1.3,0-2.3,1-2.3,2.3s1,2.3,2.3,2.3c1.3,0,2.3-1,2.3-2.3S26.3,34.4,25,34.4z M25,37.6
		c-0.5,0-0.8-0.4-0.8-0.8c0-0.5,0.4-0.8,0.8-0.8c0.5,0,0.8,0.4,0.8,0.8C25.8,37.2,25.5,37.6,25,37.6z"/>
	<path class="st0" d="M45.5,25.7c0.3,0.9,1.2,1.6,2.2,1.6c1.3,0,2.3-1,2.3-2.3s-1-2.3-2.3-2.3c-1,0-1.9,0.7-2.2,1.6h-3.4
		c0-0.6-0.1-1.3-0.2-1.9l1.6-0.3c0.4-0.1,0.7-0.5,0.6-0.9c-0.1-0.4-0.5-0.7-0.9-0.6l-1.6,0.3c-0.2-0.6-0.3-1.2-0.6-1.8l3.1-1.3
		c0.2,0.3,0.5,0.5,0.9,0.6c0.3,0.1,0.6,0.2,0.9,0.2c0.3,0,0.6-0.1,0.9-0.2c0.6-0.2,1-0.7,1.2-1.2c0.2-0.6,0.2-1.2,0-1.8
		c-0.2-0.6-0.7-1-1.2-1.2c-0.6-0.2-1.2-0.2-1.8,0c-0.6,0.2-1,0.7-1.2,1.2c-0.1,0.3-0.2,0.7-0.2,1l-3.1,1.3c-0.3-0.6-0.6-1.1-0.9-1.7
		l1.4-0.9c0.3-0.2,0.4-0.7,0.2-1c-0.2-0.3-0.7-0.4-1-0.2l-1.4,0.9c-0.4-0.5-0.8-1-1.2-1.5L40,11c0.3,0.2,0.7,0.2,1,0.2
		c0.6,0,1.2-0.2,1.6-0.7c0.4-0.4,0.7-1,0.7-1.6s-0.2-1.2-0.7-1.6c-0.4-0.4-1-0.7-1.6-0.7c-0.6,0-1.2,0.2-1.6,0.7
		C38.7,8,38.6,9.1,39,10l-2.4,2.4c-0.5-0.4-1-0.8-1.5-1.2L36,9.8c0.2-0.3,0.1-0.8-0.2-1c-0.3-0.2-0.8-0.1-1,0.2c0,0-1.3,1.9-1.3,1.9
		c-0.2,0.3-0.1,0.8,0.2,1c4.4,2.9,7,7.8,7,13.1c0,8.7-7,15.7-15.7,15.7S9.3,33.7,9.3,25S16.3,9.3,25,9.3c2.1,0,4.1,0.4,6,1.2
		c0.4,0.2,0.8,0,1-0.4h0l1.6-3.8c0.1,0,0.1,0,0.2,0c0.9,0,1.8-0.5,2.1-1.4c0.5-1.2-0.1-2.5-1.2-3c-0.6-0.2-1.2-0.2-1.8,0
		c-0.6,0.2-1,0.7-1.2,1.2s-0.2,1.2,0,1.8c0.1,0.3,0.3,0.6,0.6,0.9l-1.3,3.1c-0.6-0.2-1.2-0.4-1.8-0.6l0.3-1.6
		c0.1-0.4-0.2-0.8-0.6-0.9C28.4,5.8,28,6,27.9,6.4L27.6,8c-0.6-0.1-1.3-0.2-1.9-0.2V4.5c0.9-0.3,1.6-1.2,1.6-2.2C27.3,1,26.3,0,25,0
		s-2.3,1-2.3,2.3c0,1,0.7,1.9,1.6,2.2v3.4c-0.6,0-1.3,0.1-1.9,0.2l-0.3-1.6C22,6,21.6,5.8,21.2,5.9c-0.4,0.1-0.7,0.5-0.6,0.9
		l0.3,1.6c-0.6,0.2-1.2,0.3-1.8,0.6l-1.3-3.1c0.3-0.2,0.5-0.5,0.6-0.9c0.2-0.6,0.2-1.2,0-1.8c-0.2-0.6-0.7-1-1.2-1.2
		c-0.6-0.2-1.2-0.2-1.8,0c-1.2,0.5-1.7,1.8-1.2,3c0.4,0.9,1.2,1.4,2.1,1.4c0.1,0,0.1,0,0.2,0l1.3,3.1c-0.6,0.3-1.1,0.6-1.7,0.9
		L15.2,9c-0.2-0.3-0.7-0.4-1-0.2c-0.3,0.2-0.4,0.7-0.2,1l0.9,1.4c-0.5,0.4-1,0.8-1.5,1.2L11,10c0.4-0.9,0.3-1.9-0.4-2.6
		c-0.4-0.4-1-0.7-1.6-0.7S7.8,6.9,7.3,7.3s-0.7,1-0.7,1.6s0.2,1.2,0.7,1.6c0.4,0.4,1,0.7,1.6,0.7c0.4,0,0.7-0.1,1-0.2l2.4,2.4
		c-0.4,0.5-0.8,1-1.2,1.5L9.8,14c-0.3-0.2-0.8-0.1-1,0.2c-0.2,0.3-0.1,0.8,0.2,1l1.4,0.9c-0.3,0.5-0.6,1.1-0.9,1.7l-3.1-1.3
		c0-0.3,0-0.7-0.2-1c-0.2-0.6-0.7-1-1.2-1.2c-0.6-0.2-1.2-0.2-1.8,0c-0.6,0.2-1,0.7-1.2,1.2s-0.2,1.2,0,1.8c0.2,0.6,0.7,1,1.2,1.2
		c0.3,0.1,0.6,0.2,0.9,0.2s0.6-0.1,0.9-0.2c0.3-0.1,0.6-0.3,0.9-0.6l3.1,1.3c-0.2,0.6-0.4,1.2-0.6,1.8l-1.6-0.3
		c-0.4-0.1-0.8,0.2-0.9,0.6C5.8,21.6,6,22,6.4,22.1L8,22.4c-0.1,0.6-0.2,1.3-0.2,1.9H4.5c-0.3-0.9-1.2-1.6-2.2-1.6
		C1,22.7,0,23.7,0,25s1,2.3,2.3,2.3c1,0,1.9-0.7,2.2-1.6h3.4c0,0.6,0.1,1.3,0.2,1.9l-1.6,0.3C6,28,5.8,28.4,5.9,28.8
		c0.1,0.3,0.4,0.6,0.7,0.6c0,0,0.1,0,0.1,0l1.6-0.3c0.2,0.6,0.3,1.2,0.6,1.8l-3.1,1.3c-0.2-0.3-0.5-0.5-0.9-0.6
		c-0.6-0.2-1.2-0.2-1.8,0s-1,0.7-1.2,1.2c-0.2,0.6-0.2,1.2,0,1.8c0.2,0.6,0.7,1,1.2,1.2C3.4,35.9,3.7,36,4,36c0.3,0,0.6-0.1,0.9-0.2
		c0.6-0.2,1-0.7,1.2-1.2c0.1-0.3,0.2-0.7,0.2-1l3.1-1.3c0.3,0.6,0.6,1.1,0.9,1.7L9,34.8c-0.3,0.2-0.4,0.7-0.2,1
		c0.1,0.2,0.4,0.3,0.6,0.3c0.1,0,0.3,0,0.4-0.1l1.4-0.9c0.4,0.5,0.8,1,1.2,1.5L10,39c-0.3-0.2-0.7-0.2-1-0.2c-0.6,0-1.2,0.2-1.6,0.7
		c-0.4,0.4-0.7,1-0.7,1.6s0.2,1.2,0.7,1.6c0.4,0.4,1,0.7,1.6,0.7c0.6,0,1.2-0.2,1.6-0.7c0.7-0.7,0.9-1.8,0.4-2.6l2.4-2.4
		c0.5,0.4,1,0.8,1.5,1.2L14,40.2c-0.2,0.3-0.1,0.8,0.2,1c0.1,0.1,0.3,0.1,0.4,0.1c0.2,0,0.5-0.1,0.6-0.3l0.9-1.4
		c0.5,0.3,1.1,0.6,1.7,0.9l-1.3,3.1c-1-0.1-1.9,0.5-2.3,1.4c-0.5,1.2,0.1,2.5,1.2,3c0.3,0.1,0.6,0.2,0.9,0.2c0.3,0,0.6-0.1,0.9-0.2
		c0.6-0.2,1-0.7,1.2-1.2s0.2-1.2,0-1.8c-0.1-0.3-0.3-0.6-0.6-0.9l1.3-3.1c0.6,0.2,1.2,0.4,1.8,0.6l-0.3,1.6
		c-0.1,0.4,0.2,0.8,0.6,0.9c0,0,0.1,0,0.1,0c0.3,0,0.6-0.2,0.7-0.6l0.3-1.6c0.6,0.1,1.3,0.2,1.9,0.2v3.4c-0.9,0.3-1.6,1.2-1.6,2.2
		c0,1.3,1,2.3,2.3,2.3s2.3-1,2.3-2.3c0-1-0.7-1.9-1.6-2.2v-3.4c0.6,0,1.3-0.1,1.9-0.2l0.3,1.6c0.1,0.3,0.4,0.6,0.7,0.6
		c0,0,0.1,0,0.1,0c0.4-0.1,0.7-0.5,0.6-0.9l-0.3-1.6c0.6-0.2,1.2-0.3,1.8-0.6l1.3,3.1c-0.3,0.2-0.5,0.5-0.6,0.9
		c-0.2,0.6-0.2,1.2,0,1.8c0.2,0.6,0.7,1,1.2,1.2c0.3,0.1,0.6,0.2,0.9,0.2c0.3,0,0.6-0.1,0.9-0.2c1.2-0.5,1.7-1.8,1.2-3
		c-0.4-0.9-1.3-1.5-2.3-1.4l-1.3-3.1c0.6-0.3,1.1-0.6,1.7-0.9l0.9,1.4c0.1,0.2,0.4,0.3,0.6,0.3c0.1,0,0.3,0,0.4-0.1
		c0.3-0.2,0.4-0.7,0.2-1l-0.9-1.4c0.5-0.4,1-0.8,1.5-1.2L39,40c-0.4,0.9-0.3,1.9,0.4,2.6c0.4,0.4,1,0.7,1.6,0.7s1.2-0.2,1.6-0.7
		c0.4-0.4,0.7-1,0.7-1.6s-0.2-1.2-0.7-1.6c-0.4-0.4-1-0.7-1.6-0.7c-0.4,0-0.7,0.1-1,0.2l-2.4-2.4c0.4-0.5,0.8-1,1.2-1.5l1.4,0.9
		c0.1,0.1,0.3,0.1,0.4,0.1c0.2,0,0.5-0.1,0.6-0.3c0.2-0.3,0.1-0.8-0.2-1l-1.4-0.9c0.3-0.5,0.6-1.1,0.9-1.7l3.1,1.3
		c0,0.3,0,0.7,0.2,1c0.2,0.6,0.7,1,1.2,1.2c0.3,0.1,0.6,0.2,0.9,0.2c0.3,0,0.6-0.1,0.9-0.2c0.6-0.2,1-0.7,1.2-1.2s0.2-1.2,0-1.8
		c-0.2-0.6-0.7-1-1.2-1.2c-0.6-0.2-1.2-0.2-1.8,0c-0.3,0.1-0.6,0.3-0.9,0.6l-3.1-1.3c0.2-0.6,0.4-1.2,0.6-1.8l1.6,0.3
		c0,0,0.1,0,0.1,0c0.3,0,0.6-0.2,0.7-0.6c0.1-0.4-0.2-0.8-0.6-0.9L42,27.6c0.1-0.6,0.2-1.3,0.2-1.9L45.5,25.7z M45.2,16
		c0.1-0.2,0.2-0.4,0.5-0.5c0.1,0,0.2-0.1,0.3-0.1s0.2,0,0.3,0.1c0.2,0.1,0.4,0.2,0.5,0.5c0.1,0.2,0.1,0.4,0,0.6
		c-0.1,0.2-0.2,0.4-0.5,0.5c-0.2,0.1-0.4,0.1-0.6,0c-0.2-0.1-0.4-0.2-0.5-0.5C45.1,16.4,45.1,16.2,45.2,16z M15.5,4.3
		c-0.2-0.4,0-0.9,0.5-1.1c0.1,0,0.2-0.1,0.3-0.1c0.1,0,0.2,0,0.3,0.1c0.2,0.1,0.4,0.2,0.5,0.5c0.1,0.2,0.1,0.4,0,0.6
		c-0.1,0.2-0.2,0.4-0.5,0.5h0c0,0,0,0,0,0C16.2,5,15.7,4.8,15.5,4.3z M32.9,3.7c0.1-0.2,0.2-0.4,0.5-0.5c0.1,0,0.2-0.1,0.3-0.1
		s0.2,0,0.3,0.1c0.4,0.2,0.6,0.7,0.5,1.1c-0.2,0.4-0.7,0.6-1.1,0.5c0,0,0,0,0,0c0,0,0,0,0,0c-0.2-0.1-0.4-0.2-0.5-0.5
		C32.8,4.1,32.8,3.9,32.9,3.7L32.9,3.7z M25,1.5c0.5,0,0.8,0.4,0.8,0.8S25.5,3.1,25,3.1c-0.5,0-0.8-0.4-0.8-0.8S24.5,1.5,25,1.5z
		 M4.3,17.1c-0.2,0.1-0.4,0.1-0.6,0c-0.2-0.1-0.4-0.2-0.5-0.5c-0.1-0.2-0.1-0.4,0-0.6c0.1-0.2,0.2-0.4,0.5-0.5
		c0.1,0,0.2-0.1,0.3-0.1c0.1,0,0.2,0,0.3,0.1c0.2,0.1,0.4,0.2,0.5,0.5c0.1,0.2,0.1,0.4,0,0.6C4.7,16.8,4.6,17,4.3,17.1z M4.8,34
		c-0.1,0.2-0.2,0.4-0.5,0.5c-0.2,0.1-0.4,0.1-0.6,0c-0.2-0.1-0.4-0.2-0.5-0.5c-0.1-0.2-0.1-0.4,0-0.6c0.1-0.2,0.2-0.4,0.5-0.5
		c0.1,0,0.2-0.1,0.3-0.1c0.1,0,0.2,0,0.3,0.1c0.2,0.1,0.4,0.2,0.5,0.5C4.9,33.6,4.9,33.8,4.8,34z M8.4,9.5C8.2,9.4,8.1,9.2,8.1,8.9
		c0-0.2,0.1-0.4,0.2-0.6c0.2-0.2,0.4-0.2,0.6-0.2c0.2,0,0.4,0.1,0.6,0.2c0.3,0.3,0.3,0.9,0,1.2C9.4,9.7,9.2,9.8,8.9,9.8
		C8.7,9.8,8.5,9.7,8.4,9.5z M2.3,25.8c-0.5,0-0.8-0.4-0.8-0.8c0-0.5,0.4-0.8,0.8-0.8s0.8,0.4,0.8,0.8C3.1,25.5,2.8,25.8,2.3,25.8z
		 M9.5,41.6c-0.2,0.2-0.4,0.2-0.6,0.2c-0.2,0-0.4-0.1-0.6-0.2c-0.2-0.2-0.2-0.4-0.2-0.6c0-0.2,0.1-0.4,0.2-0.6
		c0.2-0.2,0.4-0.2,0.6-0.2c0.2,0,0.4,0.1,0.6,0.2C9.9,40.8,9.9,41.3,9.5,41.6L9.5,41.6z M17.1,46.3c-0.1,0.2-0.2,0.4-0.5,0.5
		c-0.2,0.1-0.4,0.1-0.6,0c-0.4-0.2-0.6-0.7-0.5-1.1c0.2-0.4,0.7-0.6,1.1-0.5c0,0,0,0,0,0c0,0,0,0,0,0c0.2,0.1,0.4,0.2,0.5,0.5
		C17.2,45.9,17.2,46.1,17.1,46.3L17.1,46.3z M34.5,45.7c0.2,0.4,0,0.9-0.5,1.1c-0.2,0.1-0.4,0.1-0.6,0c-0.2-0.1-0.4-0.2-0.5-0.5
		c-0.1-0.2-0.1-0.4,0-0.6c0.1-0.2,0.2-0.4,0.5-0.5h0c0,0,0,0,0,0c0.1,0,0.2-0.1,0.3-0.1C34,45.1,34.3,45.3,34.5,45.7z M25,48.5
		c-0.5,0-0.8-0.4-0.8-0.8s0.4-0.8,0.8-0.8c0.5,0,0.8,0.4,0.8,0.8S25.5,48.5,25,48.5z M45.7,32.9c0.2-0.1,0.4-0.1,0.6,0
		c0.2,0.1,0.4,0.2,0.5,0.5c0.1,0.2,0.1,0.4,0,0.6c-0.1,0.2-0.2,0.4-0.5,0.5c-0.2,0.1-0.4,0.1-0.6,0c-0.2-0.1-0.4-0.2-0.5-0.5
		c-0.1-0.2-0.1-0.4,0-0.6C45.3,33.2,45.4,33,45.7,32.9z M47.7,24.2c0.5,0,0.8,0.4,0.8,0.8c0,0.5-0.4,0.8-0.8,0.8
		c-0.5,0-0.8-0.4-0.8-0.8C46.9,24.5,47.2,24.2,47.7,24.2L47.7,24.2z M40.5,8.4c0.2-0.2,0.4-0.2,0.6-0.2s0.4,0.1,0.6,0.2
		c0.2,0.2,0.2,0.4,0.2,0.6c0,0.2-0.1,0.4-0.2,0.6c-0.2,0.2-0.4,0.2-0.6,0.2s-0.4-0.1-0.6-0.2C40.1,9.2,40.1,8.7,40.5,8.4z
		 M41.6,40.5c0.2,0.2,0.2,0.4,0.2,0.6c0,0.2-0.1,0.4-0.2,0.6c-0.2,0.2-0.4,0.2-0.6,0.2s-0.4-0.1-0.6-0.2c-0.3-0.3-0.3-0.9,0-1.2
		c0.2-0.2,0.4-0.2,0.6-0.2C41.3,40.2,41.5,40.3,41.6,40.5L41.6,40.5z"/>
	<path class="st0" d="M39,25c0-1.3-1-2.3-2.3-2.3s-2.3,1-2.3,2.3c0,1.3,1,2.3,2.3,2.3C38,27.3,39,26.3,39,25z M35.9,25
		c0-0.5,0.4-0.8,0.8-0.8c0.5,0,0.8,0.4,0.8,0.8c0,0.5-0.4,0.8-0.8,0.8C36.3,25.8,35.9,25.5,35.9,25z"/>
	<path class="st0" d="M11,25c0,1.3,1,2.3,2.3,2.3s2.3-1,2.3-2.3c0-1.3-1-2.3-2.3-2.3C12,22.7,11,23.7,11,25z M14.1,25
		c0,0.5-0.4,0.8-0.8,0.8c-0.5,0-0.8-0.4-0.8-0.8c0-0.5,0.4-0.8,0.8-0.8C13.7,24.2,14.1,24.5,14.1,25z"/>
	<path class="st0" d="M15.1,15.1c-0.4,0.4-0.7,1-0.7,1.6s0.2,1.2,0.7,1.6c0.4,0.4,1,0.7,1.6,0.7s1.2-0.2,1.6-0.7
		c0.4-0.4,0.7-1,0.7-1.6s-0.2-1.2-0.7-1.6c-0.4-0.4-1-0.7-1.6-0.7S15.5,14.6,15.1,15.1z M17.5,16.7c0,0.2-0.1,0.4-0.2,0.6
		c-0.2,0.2-0.4,0.2-0.6,0.2c-0.2,0-0.4-0.1-0.6-0.2c-0.2-0.2-0.2-0.4-0.2-0.6c0-0.2,0.1-0.4,0.2-0.6c0.2-0.2,0.4-0.2,0.6-0.2
		c0.2,0,0.4,0.1,0.6,0.2C17.4,16.3,17.5,16.5,17.5,16.7L17.5,16.7z"/>
	<path class="st0" d="M33.3,35.6c0.6,0,1.2-0.2,1.6-0.7c0.4-0.4,0.7-1,0.7-1.6c0-0.6-0.2-1.2-0.7-1.6c-0.4-0.4-1-0.7-1.6-0.7
		s-1.2,0.2-1.6,0.7s-0.7,1-0.7,1.6c0,0.6,0.2,1.2,0.7,1.6C32.1,35.4,32.7,35.6,33.3,35.6z M32.7,32.7c0.2-0.2,0.4-0.2,0.6-0.2
		c0.2,0,0.4,0.1,0.6,0.2c0.2,0.2,0.2,0.4,0.2,0.6s-0.1,0.4-0.2,0.6c-0.2,0.2-0.4,0.2-0.6,0.2c-0.2,0-0.4-0.1-0.6-0.2
		c-0.2-0.2-0.2-0.4-0.2-0.6S32.6,32.9,32.7,32.7L32.7,32.7z"/>
	<path class="st0" d="M33.9,17.3c-0.2,0.2-0.4,0.2-0.6,0.2c-0.2,0-0.4-0.1-0.6-0.2c-0.2-0.2-0.2-0.4-0.2-0.6c0-0.2,0.1-0.4,0.2-0.6
		c0.3-0.3,0.3-0.7,0-1s-0.7-0.3-1,0c-0.4,0.4-0.7,1-0.7,1.6s0.2,1.2,0.7,1.6c0.4,0.4,1,0.7,1.6,0.7s1.2-0.2,1.6-0.7
		c0.3-0.3,0.3-0.7,0-1C34.6,17,34.2,17,33.9,17.3L33.9,17.3z"/>
	<path class="st0" d="M16.7,35.6c0.6,0,1.2-0.2,1.6-0.7c0.3-0.3,0.3-0.7,0-1c-0.3-0.3-0.7-0.3-1,0c-0.2,0.2-0.4,0.2-0.6,0.2
		s-0.4-0.1-0.6-0.2c-0.2-0.2-0.2-0.4-0.2-0.6c0-0.2,0.1-0.4,0.2-0.6c0.3-0.3,0.3-0.7,0-1c-0.3-0.3-0.7-0.3-1,0
		c-0.4,0.4-0.7,1-0.7,1.6c0,0.6,0.2,1.2,0.7,1.6C15.5,35.4,16.1,35.6,16.7,35.6L16.7,35.6z"/>
	<path class="st0" d="M25,18c-1.3,0-2.3,1-2.3,2.3s1,2.3,2.3,2.3c1.3,0,2.3-1,2.3-2.3S26.3,18,25,18z M25,21.1
		c-0.5,0-0.8-0.4-0.8-0.8c0-0.5,0.4-0.8,0.8-0.8c0.5,0,0.8,0.4,0.8,0.8C25.8,20.8,25.5,21.1,25,21.1z"/>
	<path class="st0" d="M25,27.4c-1.3,0-2.3,1-2.3,2.3c0,1.3,1,2.3,2.3,2.3c1.3,0,2.3-1,2.3-2.3C27.3,28.4,26.3,27.4,25,27.4z
		 M25,30.5c-0.5,0-0.8-0.4-0.8-0.8c0-0.5,0.4-0.8,0.8-0.8c0.5,0,0.8,0.4,0.8,0.8C25.8,30.2,25.5,30.5,25,30.5z"/>
	<path class="st0" d="M32,25c0-1.3-1-2.3-2.3-2.3c-1.3,0-2.3,1-2.3,2.3c0,1.3,1,2.3,2.3,2.3C31,27.3,32,26.3,32,25z M29.7,25.8
		c-0.5,0-0.8-0.4-0.8-0.8c0-0.5,0.4-0.8,0.8-0.8c0.5,0,0.8,0.4,0.8,0.8C30.5,25.5,30.2,25.8,29.7,25.8z"/>
	<path class="st0" d="M22.6,25c0-1.3-1-2.3-2.3-2.3c-1.3,0-2.3,1-2.3,2.3c0,1.3,1,2.3,2.3,2.3C21.6,27.3,22.6,26.3,22.6,25z
		 M20.3,25.8c-0.5,0-0.8-0.4-0.8-0.8c0-0.5,0.4-0.8,0.8-0.8c0.5,0,0.8,0.4,0.8,0.8C21.1,25.5,20.8,25.8,20.3,25.8z"/>
	<path class="st0" d="M20.3,21L20.3,21c0.4,0,0.7-0.3,0.7-0.7s-0.3-0.7-0.7-0.7s-0.7,0.3-0.7,0.7S19.9,21,20.3,21L20.3,21z"/>
	<path class="st0" d="M20.3,30.4c0.4,0,0.7-0.3,0.7-0.7c0-0.4-0.3-0.7-0.7-0.7s-0.7,0.3-0.7,0.7C19.6,30.1,19.9,30.4,20.3,30.4
		L20.3,30.4z"/>
	<path class="st0" d="M29,20.3c0,0.4,0.3,0.7,0.7,0.7h0c0.4,0,0.7-0.3,0.7-0.7s-0.3-0.7-0.7-0.7C29.3,19.6,29,19.9,29,20.3L29,20.3z
		"/>
	<path class="st0" d="M20.5,14.9c0.1,0,0.2,0,0.3-0.1l0,0c0.4-0.2,0.5-0.6,0.4-1s-0.6-0.5-1-0.4c-0.4,0.2-0.6,0.6-0.4,1
		C19.9,14.7,20.2,14.9,20.5,14.9z"/>
	<path class="st0" d="M35.6,19.8c-0.4,0.2-0.5,0.6-0.4,1c0.1,0.3,0.4,0.5,0.7,0.5c0.1,0,0.2,0,0.3-0.1l0,0c0.4-0.2,0.5-0.6,0.4-1
		C36.4,19.9,35.9,19.7,35.6,19.8L35.6,19.8z"/>
	<path class="st0" d="M14.2,30.2c0.1,0,0.2,0,0.3-0.1l0,0c0.4-0.2,0.5-0.6,0.4-1c-0.2-0.4-0.6-0.5-1-0.4c-0.4,0.2-0.6,0.6-0.4,1
		C13.6,30.1,13.9,30.2,14.2,30.2L14.2,30.2z"/>
	<path class="st0" d="M29.2,35.2c-0.4,0.2-0.6,0.6-0.4,1c0.1,0.3,0.4,0.5,0.7,0.5c0.1,0,0.2,0,0.3-0.1l0,0c0.4-0.2,0.5-0.6,0.4-1
		C30,35.2,29.6,35,29.2,35.2L29.2,35.2z"/>
	<path class="st0" d="M29.7,29c-0.4,0-0.7,0.3-0.7,0.7c0,0.4,0.3,0.7,0.7,0.7h0c0.4,0,0.7-0.3,0.7-0.7C30.4,29.3,30.1,29,29.7,29
		L29.7,29z"/>
	<path class="st0" d="M13.5,20.2c-0.2,0.4,0,0.8,0.4,1c0.1,0,0.2,0.1,0.3,0.1c0.3,0,0.6-0.2,0.7-0.5l0,0c0.2-0.4,0-0.8-0.4-1
		C14.1,19.7,13.6,19.9,13.5,20.2L13.5,20.2z"/>
	<path class="st0" d="M29.8,13.5c-0.4-0.2-0.8,0-1,0.4c-0.2,0.4,0,0.8,0.4,1c0.1,0,0.2,0.1,0.3,0.1c0.3,0,0.6-0.2,0.7-0.5l0,0
		C30.3,14.1,30.1,13.6,29.8,13.5L29.8,13.5z"/>
	<path class="st0" d="M20.2,36.5c0.1,0,0.2,0.1,0.3,0.1c0.3,0,0.6-0.2,0.7-0.5l0,0c0.2-0.4,0-0.8-0.4-1c-0.4-0.2-0.8,0-1,0.4
		C19.7,35.9,19.9,36.4,20.2,36.5L20.2,36.5z"/>
	<path class="st0" d="M36.5,29.8L36.5,29.8c0.2-0.4,0-0.8-0.4-1c-0.4-0.2-0.8,0-1,0.4c-0.2,0.4,0,0.8,0.4,1c0.1,0,0.2,0.1,0.3,0.1
		C36.1,30.2,36.4,30.1,36.5,29.8L36.5,29.8z"/>
</g>
</svg>
