<?xml version="1.0" encoding="utf-8"?>
<!-- Generator: Adobe Illustrator 24.1.0, SVG Export Plug-In . SVG Version: 6.00 Build 0)  -->
<svg version="1.1" id="Capa_1" xmlns="http://www.w3.org/2000/svg" xmlns:xlink="http://www.w3.org/1999/xlink" x="0px" y="0px"
	 viewBox="0 0 382 400" style="enable-background:new 0 0 382 400;" xml:space="preserve">
<path d="M360.8,5l-80.3,124.7l-39.7,2.5L117.1,38l21.5,124.7c0,0-105.6,19.9-123.9,49c-18.3,29-1.5,123.7,19.9,145.1
	c21.4,21.4,327,38.2,327,38.2l13.7-253.8L360.8,5z M113,290c-47.7-22.1-78.4-66.5-78.4-66.5s41-9.2,79.7-7.6
	c-1.5,9.2-2.4,20.2-2.4,32.1c0,17.3,1.9,32.7,4.8,43.5C115.3,291,114,290.5,113,290z M134.4,296.5c3.8-10.6,6.3-28.4,6.3-48.5
	c0-10.7-0.8-20.7-2-29.3c7.4,1.5,14.4,3.6,20.4,6.6c40.9,20.4,47.7,59.6,51.2,73.3C212.8,309.1,165.3,303.8,134.4,296.5z
	 M227.2,284.8c2.4-9.4,7.1-36.5,35.3-50.6c3.2-1.6,6.8-2.8,10.7-3.8c-1.5,7.1-2.3,16-2.3,25.9c0,11.1,1.1,21.1,2.8,28.4
	C252.7,289,225.6,291.5,227.2,284.8z M294.3,278.9c-1.4,0.6-3.4,1.4-5.6,2c1.3-6.8,2.1-15.3,2.1-24.6c0-11-1.1-20.9-2.8-28.2
	c28.1-2.3,60.5,4.9,60.5,4.9S327.2,263.6,294.3,278.9z"/>
</svg>
