<?xml version="1.0" encoding="utf-8"?>
<!-- Generator: Adobe Illustrator 24.1.0, SVG Export Plug-In . SVG Version: 6.00 Build 0)  -->
<svg version="1.1" id="Capa_1" xmlns="http://www.w3.org/2000/svg" xmlns:xlink="http://www.w3.org/1999/xlink" x="0px" y="0px"
	 viewBox="0 0 50 50" style="enable-background:new 0 0 50 50;" xml:space="preserve">
<style type="text/css">
	.st0{fill:#FFFFFF;}
</style>
<g>
	<g>
		<circle class="st0" cx="25" cy="25" r="23.8"/>
		<path d="M25,49.2C11.6,49.2,0.8,38.4,0.8,25C0.8,11.6,11.6,0.8,25,0.8S49.2,11.6,49.2,25C49.2,38.4,38.4,49.2,25,49.2z M25,1.7
			C12.2,1.7,1.7,12.2,1.7,25S12.2,48.3,25,48.3c12.8,0,23.3-10.5,23.3-23.3S37.8,1.7,25,1.7z"/>
	</g>
	<g>
		<polyline class="st0" points="20.4,14.5 30.9,25 20.4,35.5 		"/>
		<polygon points="20.7,35.8 20.1,35.1 30.2,25 20.1,14.9 20.7,14.2 31.5,25 		"/>
	</g>
</g>
</svg>
