<?xml version="1.0" encoding="utf-8"?>
<!-- Generator: Adobe Illustrator 24.1.0, SVG Export Plug-In . SVG Version: 6.00 Build 0)  -->
<svg version="1.1" id="Capa_1" xmlns="http://www.w3.org/2000/svg" xmlns:xlink="http://www.w3.org/1999/xlink" x="0px" y="0px"
	 viewBox="0 0 50 50" style="enable-background:new 0 0 50 50;" xml:space="preserve">
<style type="text/css">
	.st0{fill:#FFFFFF;}
</style>
<g>
	<g>
		<circle class="st0" cx="25" cy="25" r="23.8"/>
		<path d="M25,0.8c13.4,0,24.2,10.9,24.2,24.2c0,13.4-10.9,24.2-24.2,24.2S0.8,38.4,0.8,25C0.8,11.6,11.6,0.8,25,0.8z M25,48.3
			c12.8,0,23.3-10.5,23.3-23.3S37.8,1.7,25,1.7C12.2,1.7,1.7,12.2,1.7,25S12.2,48.3,25,48.3z"/>
	</g>
	<g>
		<polyline class="st0" points="29.6,35.5 19.1,25 29.6,14.5 		"/>
		<polygon points="29.3,14.2 29.9,14.9 19.8,25 29.9,35.1 29.3,35.8 18.5,25 		"/>
	</g>
</g>
</svg>
