<?xml version="1.0" encoding="utf-8"?>
<!-- Generator: Adobe Illustrator 24.1.0, SVG Export Plug-In . SVG Version: 6.00 Build 0)  -->
<svg version="1.1" id="Capa_1" xmlns="http://www.w3.org/2000/svg" xmlns:xlink="http://www.w3.org/1999/xlink" x="0px" y="0px"
	 viewBox="0 0 75 75" style="enable-background:new 0 0 75 75;" xml:space="preserve">
<style type="text/css">
	.st0{fill:#E5087C;}
	.st1{fill:#1D1D1B;}
</style>
<g>
	<path class="st0" d="M38,11.7l-0.5-0.5L37,11.7c-8.4,7.7-13.3,18.5-13.3,29.9c0,1.4,0.1,2.8,0.2,4.3l0,0.3l0.2,0.2
		c0.9,0.7,1.6,1.4,2.3,2.1c5.9,5.9,9.4,13.8,9.9,22.2l0,0.3l0.4,0.3c0.1,0.1,0.1,0.1,0.2,0.2l0.5,0.5l0.5-0.5
		c0.1-0.1,0.1-0.1,0.2-0.2l0.4-0.3l0-0.3c0.5-8.4,4-16.3,9.9-22.2c0.7-0.7,1.4-1.4,2.3-2.1l0.2-0.2l0-0.3c0.2-1.4,0.2-2.9,0.2-4.3
		C51.3,30.3,46.4,19.4,38,11.7z M49.6,45.4c-0.8,0.7-1.5,1.3-2.2,2c-4.4,4.4-7.5,9.8-9.1,15.7v-29h-1.5v29
		c-1.6-5.9-4.7-11.3-9.1-15.7c-0.7-0.7-1.4-1.3-2.2-2c-0.1-1.3-0.2-2.5-0.2-3.8c0-10.7,4.5-20.9,12.2-28.3
		c7.8,7.3,12.2,17.6,12.2,28.3C49.7,42.8,49.7,44.1,49.6,45.4z"/>
	<path class="st1" d="M75,37.8l0-0.7l-0.7,0c-10-0.5-19.8,3.3-26.9,10.3c-5.2,5.2-8.7,12-9.9,19.2c-1.2-7.2-4.6-14-9.9-19.2
		c-7-7-16.8-10.8-26.9-10.3l-0.7,0l0,0.7c-0.5,10,3.3,19.8,10.3,26.9C17,71.3,26.1,75,35.5,75c0.6,0,1.1,0,1.7,0l0.3,0l0.3,0
		c0.6,0,1.1,0,1.7,0c9.4,0,18.5-3.7,25.2-10.4C71.7,57.6,75.4,47.8,75,37.8z M11.5,63.5C4.9,57,1.3,47.9,1.5,38.5
		c9.3-0.2,18.4,3.3,25,9.9c6.2,6.2,9.7,14.5,9.9,23.2L20.8,56l-1.1,1.1l16.4,16.4C26.9,73.6,18,70,11.5,63.5z M63.5,63.5
		c-6.5,6.5-15.4,10-24.5,9.9l16.4-16.4L54.3,56L38.5,71.8c0.2-8.7,3.7-17.1,9.9-23.3c6.6-6.6,15.7-10.2,25-9.9
		C73.7,47.9,70.1,57,63.5,63.5z"/>
</g>
</svg>
