<?xml version="1.0" encoding="utf-8"?>
<!-- Generator: Adobe Illustrator 24.1.0, SVG Export Plug-In . SVG Version: 6.00 Build 0)  -->
<svg version="1.1" id="Layer_1" xmlns="http://www.w3.org/2000/svg" xmlns:xlink="http://www.w3.org/1999/xlink" x="0px" y="0px"
	 viewBox="0 0 56.7 56.7" style="enable-background:new 0 0 56.7 56.7;" xml:space="preserve">
<style type="text/css">
	.st0{fill:#FFFFFF;}
</style>
<path class="st0" d="M6.7,29.7c5.4,0,10.5,2.1,14.3,6c3.8,3.8,5.9,9,5.9,14.4h8.3c0-15.8-12.8-28.7-28.6-28.7
	C6.7,21.4,6.7,29.7,6.7,29.7z M6.7,14.9c19.3,0,34.9,15.8,34.9,35.1H50c0-24-19.4-43.5-43.3-43.5C6.7,6.6,6.7,14.9,6.7,14.9z
	 M18.2,44.3c0,3.2-2.6,5.8-5.8,5.8s-5.8-2.6-5.8-5.8c0-3.2,2.6-5.8,5.8-5.8S18.2,41.1,18.2,44.3z"/>
</svg>
