<?xml version="1.0" encoding="utf-8"?>
<!-- Generator: Adobe Illustrator 24.1.0, SVG Export Plug-In . SVG Version: 6.00 Build 0)  -->
<svg version="1.1" id="Capa_1" xmlns="http://www.w3.org/2000/svg" xmlns:xlink="http://www.w3.org/1999/xlink" x="0px" y="0px"
	 viewBox="0 0 146 66" style="enable-background:new 0 0 146 66;" xml:space="preserve">
<g>
	<path d="M42.5,22.9l-5.7,0.4L18.9,9.6l3.1,18c0,0-15.2,2.9-17.9,7.1C1.5,38.9,3.9,52.5,7,55.6c3.1,3.1,47.1,5.5,47.1,5.5l2-36.6
		L54,4.9L42.5,22.9z M18.3,46C11.4,42.8,7,36.4,7,36.4s5.9-1.3,11.5-1.1c-0.2,1.3-0.3,2.9-0.3,4.6c0,2.5,0.3,4.7,0.7,6.3
		C18.6,46.1,18.4,46.1,18.3,46z M21.4,46.9c0.5-1.5,0.9-4.1,0.9-7c0-1.5-0.1-3-0.3-4.2c1.1,0.2,2.1,0.5,2.9,0.9
		c5.9,2.9,6.9,8.6,7.4,10.6C32.7,48.7,25.9,48,21.4,46.9z M34.8,45.2c0.3-1.4,1-5.3,5.1-7.3c0.5-0.2,1-0.4,1.5-0.6
		c-0.2,1-0.3,2.3-0.3,3.7c0,1.6,0.2,3,0.4,4.1C38.4,45.8,34.5,46.2,34.8,45.2z M44.4,44.4c-0.2,0.1-0.5,0.2-0.8,0.3
		c0.2-1,0.3-2.2,0.3-3.6c0-1.6-0.2-3-0.4-4.1c4.1-0.3,8.7,0.7,8.7,0.7S49.2,42.2,44.4,44.4z"/>
	<path d="M68.8,31.3c0.5,0,0.9-0.2,1.3-0.5c0.3-0.3,0.5-0.8,0.5-1.3V28c0-1,0.1-1.8,0.4-2.4c0.3-0.7,0.7-1.2,1.1-1.6
		c0.5-0.4,1-0.7,1.6-0.9c0.6-0.2,1.2-0.3,1.9-0.3c0.6,0,1.3,0.1,1.9,0.3c0.6,0.2,1.1,0.5,1.6,0.9c0.5,0.4,0.8,1,1.1,1.6
		c0.3,0.7,0.4,1.5,0.4,2.4v1.5c0,0.5,0.2,0.9,0.5,1.3c0.3,0.3,0.8,0.5,1.3,0.5c0,0,0,0,0,0c0.5,0,0.9-0.2,1.2-0.5
		c0.3-0.3,0.5-0.8,0.5-1.3V28c0-1.2-0.2-2.3-0.5-3.2c-0.3-1-0.8-1.8-1.4-2.5c-0.6-0.7-1.2-1.3-2-1.8c-0.7-0.5-1.5-0.8-2.4-1l0,0
		c0,0,0,0,0,0c0,0,0,0,0-0.1c0,0,0,0,0.1-0.1l1.6-2.4c0.2-0.3,0.3-0.7,0.3-1c0-0.4-0.2-0.9-0.5-1.2c-0.3-0.4-0.8-0.6-1.3-0.6
		c-0.6,0-1.2,0.3-1.5,0.7l-3,4.4c-0.1,0.1-0.2,0.2-0.3,0.2c-1,0.3-1.9,0.7-2.6,1.1c0,0-0.1,0-0.1,0.1c0,0,0,0,0,0c0,0,0,0,0-0.1V8.6
		c0-0.5-0.2-0.9-0.5-1.3c-0.3-0.3-0.8-0.5-1.3-0.5c-0.5,0-0.9,0.2-1.3,0.5C67.2,7.6,67,8.1,67,8.6v20.9c0,0.5,0.2,0.9,0.5,1.3
		C67.9,31.1,68.3,31.3,68.8,31.3z"/>
	<path d="M104.1,31c0.3,0.2,0.6,0.3,1,0.3l0.1,0l0,0c0.3,0,0.7-0.1,0.9-0.3c0.4-0.2,0.6-0.7,0.7-1.1c0-0.1,0-0.3,0-0.4
		c0-0.3-0.1-0.7-0.3-0.9c-0.1-0.2-0.3-0.4-0.6-0.6c-0.3-0.2-0.5-0.4-0.7-0.7c-0.2-0.3-0.4-0.6-0.6-1c-0.2-0.4-0.3-0.7-0.4-1.1
		c-0.1-0.4-0.1-0.8-0.1-1.1v-7.7c0-0.5-0.2-0.9-0.5-1.3c-0.3-0.3-0.8-0.5-1.3-0.5c-0.5,0-0.9,0.2-1.3,0.5c-0.2,0.2-0.3,0.4-0.4,0.6
		c-0.6-0.4-1.3-0.8-1.9-1c-1-0.4-2.1-0.6-3.2-0.6c-1,0-2.1,0.2-3.1,0.5c-1,0.4-2,0.9-2.8,1.7c-0.8,0.7-1.5,1.7-2,2.8
		c-0.5,1.1-0.7,2.4-0.7,3.9c0,1.5,0.2,2.8,0.8,3.9c0.5,1.1,1.2,2,2,2.8c0.8,0.7,1.7,1.3,2.8,1.7c1,0.4,2.1,0.5,3.1,0.5
		c1.2,0,2.5-0.2,3.6-0.7c1.1-0.5,2.1-1.2,2.9-2.1c0.2,0.4,0.5,0.7,0.7,1C103.3,30.4,103.7,30.7,104.1,31z M100.3,25.4
		c-0.3,0.7-0.7,1.2-1.1,1.7c-0.5,0.4-1,0.7-1.6,0.9c-0.6,0.2-1.3,0.3-1.9,0.3c-0.6,0-1.3-0.1-1.9-0.3c-0.6-0.2-1.1-0.5-1.6-1
		c-0.5-0.4-0.8-1-1.1-1.6c-0.3-0.6-0.4-1.4-0.4-2.4c0-1,0.1-1.7,0.4-2.4c0.3-0.7,0.7-1.2,1.1-1.6c0.5-0.4,1-0.7,1.6-0.9
		c0.6-0.2,1.2-0.3,1.9-0.3c0.6,0,1.3,0.1,1.9,0.3c0.6,0.2,1.1,0.5,1.6,0.9c0.5,0.4,0.8,1,1.1,1.6c0.3,0.7,0.4,1.5,0.4,2.4
		C100.7,23.9,100.6,24.7,100.3,25.4z"/>
	<path d="M109,17.9h1c0.1,0,0.2,0,0.3,0.1c0.1,0.1,0.1,0.1,0.1,0.3V23c0,1.5,0.2,2.8,0.8,3.9c0.5,1.1,1.2,2,2,2.8
		c0.8,0.7,1.7,1.3,2.8,1.7c1,0.4,2.1,0.5,3.1,0.5c0,0,0,0,0,0c0.5,0,0.9-0.2,1.2-0.5c0.3-0.3,0.5-0.8,0.5-1.3c0-0.5-0.2-0.9-0.5-1.3
		c-0.3-0.3-0.8-0.5-1.3-0.5c-0.6,0-1.3-0.1-1.9-0.3c-0.6-0.2-1.1-0.5-1.6-1c-0.5-0.4-0.8-1-1.1-1.7c-0.3-0.7-0.4-1.5-0.4-2.4v-4.7
		c0-0.1,0-0.2,0.1-0.3c0.1-0.1,0.2-0.1,0.3-0.1h3.5c0.4,0,0.8-0.2,1.1-0.5c0.3-0.3,0.5-0.7,0.5-1.1c0-0.4-0.2-0.9-0.5-1.2
		c-0.3-0.3-0.7-0.5-1.1-0.5h-3.5c-0.1,0-0.2,0-0.3-0.1c-0.1-0.1-0.1-0.2-0.1-0.3V8.6c0-0.5-0.2-0.9-0.5-1.3
		c-0.3-0.3-0.8-0.5-1.3-0.5c-0.5,0-0.9,0.2-1.3,0.5c-0.3,0.3-0.5,0.8-0.5,1.3v5.7c0,0.1,0,0.2-0.1,0.3c-0.1,0.1-0.2,0.1-0.3,0.1h-1
		c-0.4,0-0.8,0.2-1.1,0.5c-0.3,0.3-0.5,0.7-0.5,1.2c0,0.4,0.2,0.8,0.5,1.1C108.2,17.7,108.6,17.9,109,17.9z"/>
	<path d="M142.7,28.6c-0.1-0.2-0.3-0.4-0.6-0.6c-0.3-0.2-0.5-0.4-0.7-0.7c-0.2-0.3-0.4-0.6-0.6-1c-0.2-0.4-0.3-0.7-0.4-1.1
		c-0.1-0.4-0.1-0.8-0.1-1.1v-7.7c0-0.5-0.2-0.9-0.5-1.3c-0.3-0.3-0.8-0.5-1.3-0.5c-0.5,0-0.9,0.2-1.3,0.5c-0.2,0.2-0.3,0.3-0.4,0.6
		c-0.6-0.4-1.3-0.8-1.9-1c-1-0.4-2.1-0.6-3.2-0.6c-1.1,0-2.1,0.2-3.1,0.5c-1,0.4-2,0.9-2.8,1.7c-0.8,0.7-1.5,1.7-2,2.8
		c-0.5,1.1-0.7,2.4-0.7,3.9c0,1.5,0.2,2.8,0.8,3.9c0.5,1.1,1.2,2,2,2.8c0.8,0.7,1.7,1.3,2.8,1.7c1,0.4,2.1,0.5,3.1,0.5
		c1.2,0,2.5-0.2,3.6-0.7c1.1-0.5,2.1-1.2,2.9-2.1c0.2,0.4,0.5,0.7,0.7,1c0.3,0.4,0.7,0.7,1.2,1c0.3,0.2,0.6,0.3,1,0.3l0.1,0l0,0
		c0.3,0,0.7-0.1,0.9-0.3c0.4-0.2,0.6-0.7,0.7-1.1c0-0.1,0-0.3,0-0.4C143,29.2,142.9,28.8,142.7,28.6z M136.4,25.4
		c-0.3,0.7-0.7,1.2-1.1,1.7c-0.5,0.4-1,0.7-1.6,0.9c-0.6,0.2-1.2,0.3-1.9,0.3c-0.6,0-1.3-0.1-1.9-0.3c-0.6-0.2-1.1-0.5-1.6-1
		c-0.5-0.4-0.8-1-1.1-1.6c-0.3-0.6-0.4-1.4-0.4-2.4c0-1,0.1-1.7,0.4-2.4h0c0.3-0.7,0.7-1.2,1.1-1.6c0.5-0.4,1-0.7,1.6-0.9
		c0.6-0.2,1.2-0.3,1.9-0.3c0.6,0,1.3,0.1,1.9,0.3c0.6,0.2,1.1,0.5,1.6,0.9c0.5,0.4,0.8,1,1.1,1.6c0.3,0.7,0.4,1.5,0.4,2.4
		C136.8,23.9,136.7,24.7,136.4,25.4z"/>
	<path d="M82.4,49.6c-0.6-0.7-1.2-1.3-2-1.8c-0.7-0.5-1.5-0.8-2.4-1l0,0c0,0,0,0,0,0c0,0,0,0,0-0.1v0c0,0,0,0,0.1-0.1l1.6-2.4
		c0.2-0.3,0.3-0.7,0.3-1c0-0.4-0.2-0.9-0.5-1.2c-0.3-0.4-0.8-0.6-1.3-0.6c-0.6,0-1.2,0.3-1.5,0.7l-3,4.4c-0.1,0.1-0.2,0.2-0.3,0.2
		c-1,0.3-1.9,0.7-2.6,1.1c0,0-0.1,0-0.1,0.1c0,0,0,0,0,0c0,0,0,0,0-0.1V35.9c0-0.5-0.2-0.9-0.5-1.3c-0.3-0.3-0.8-0.5-1.3-0.5
		c-0.5,0-0.9,0.2-1.3,0.5C67.2,35,67,35.5,67,35.9v20.9c0,0.5,0.2,0.9,0.5,1.3c0.3,0.3,0.8,0.5,1.3,0.5c0.5,0,0.9-0.2,1.3-0.5
		c0.3-0.3,0.5-0.8,0.5-1.3v-1.5c0-1,0.2-1.8,0.4-2.4c0.3-0.7,0.7-1.2,1.1-1.6c0.5-0.4,1-0.7,1.6-0.9c0.6-0.2,1.2-0.3,1.9-0.3
		c0.6,0,1.3,0.1,1.9,0.3c0.6,0.2,1.1,0.5,1.6,0.9c0.5,0.4,0.8,1,1.1,1.6c0.3,0.7,0.4,1.5,0.4,2.4v1.5c0,0.5,0.2,0.9,0.5,1.3
		c0.3,0.3,0.8,0.5,1.3,0.5c0,0,0,0,0,0c0.5,0,0.9-0.2,1.2-0.5c0.3-0.3,0.5-0.8,0.5-1.3v-1.5c0-1.2-0.2-2.3-0.5-3.2
		C83.4,51.2,83,50.3,82.4,49.6z"/>
	<path d="M100.4,42.2c-1.2-0.5-2.4-0.8-3.8-0.8c-1.1,0-2.1,0.2-3.1,0.5c-1,0.4-2,0.9-2.8,1.7c-0.8,0.7-1.5,1.7-2,2.8
		c-0.5,1.1-0.7,2.4-0.7,3.9v6.6c0,0.5,0.2,0.9,0.5,1.3c0.3,0.3,0.8,0.5,1.3,0.5c0,0,0,0,0,0c0.5,0,0.9-0.2,1.2-0.5
		c0.3-0.3,0.5-0.8,0.5-1.3v-6.6c0-1,0.1-1.8,0.4-2.4c0.3-0.7,0.7-1.2,1.1-1.6c0.5-0.4,1-0.7,1.6-0.9c0.6-0.2,1.2-0.3,1.9-0.3
		c0.8,0,1.5,0.2,2.3,0.5c0.2,0.1,0.5,0.1,0.7,0.1c0.5,0,0.9-0.2,1.3-0.5c0.3-0.3,0.5-0.8,0.5-1.3c0-0.3-0.1-0.7-0.3-1
		C100.9,42.6,100.7,42.4,100.4,42.2z"/>
	<path d="M121.4,55.4c-0.3-0.2-0.5-0.4-0.7-0.7c-0.2-0.3-0.4-0.6-0.6-1c-0.2-0.4-0.3-0.7-0.3-1.1c-0.1-0.4-0.1-0.8-0.1-1.1v-7.7
		c0-0.5-0.2-0.9-0.5-1.3c-0.3-0.3-0.8-0.5-1.3-0.5c-0.5,0-0.9,0.2-1.3,0.5c-0.2,0.2-0.3,0.3-0.4,0.6c-0.6-0.4-1.3-0.8-1.9-1
		c-1-0.4-2.1-0.6-3.2-0.6c-1.1,0-2.1,0.2-3.1,0.5c-1,0.4-2,0.9-2.8,1.7c-0.8,0.7-1.5,1.7-2,2.8c-0.5,1.1-0.7,2.4-0.7,3.9
		c0,1.5,0.2,2.8,0.8,3.9c0.5,1.1,1.2,2,2,2.8c0.8,0.7,1.7,1.3,2.8,1.7c1,0.4,2,0.5,3.1,0.5c0,0,0,0,0,0c1.2,0,2.5-0.2,3.6-0.7
		c1.1-0.5,2.1-1.2,2.9-2.1c0.2,0.4,0.5,0.7,0.7,1c0.3,0.4,0.7,0.7,1.2,1c0.3,0.2,0.6,0.3,1,0.3l0.1,0l0,0c0.3,0,0.7-0.1,1-0.3
		c0.4-0.2,0.6-0.7,0.7-1.1c0-0.1,0-0.3,0-0.4c0-0.3-0.1-0.7-0.3-0.9C121.8,55.7,121.6,55.5,121.4,55.4z M115.6,52.7
		c-0.3,0.7-0.7,1.2-1.1,1.7c-0.5,0.4-1,0.7-1.6,0.9c-0.6,0.2-1.2,0.3-1.9,0.3c-0.6,0-1.3-0.1-1.9-0.3c-0.6-0.2-1.1-0.5-1.6-0.9
		c-0.5-0.4-0.8-1-1.1-1.6c-0.3-0.6-0.4-1.5-0.4-2.4c0-1,0.1-1.8,0.4-2.4h0c0.3-0.7,0.7-1.2,1.1-1.6c0.5-0.4,1-0.7,1.6-0.9
		c0.6-0.2,1.2-0.3,1.9-0.3c0.6,0,1.3,0.1,1.9,0.3c0.6,0.2,1.1,0.5,1.6,0.9c0.5,0.4,0.8,0.9,1.1,1.6c0.3,0.7,0.4,1.5,0.4,2.4
		C116,51.3,115.9,52.1,115.6,52.7z"/>
	<path d="M140.4,49.6c-0.6-0.7-1.2-1.3-2-1.8c-0.7-0.5-1.5-0.8-2.4-1l0,0c0,0,0,0,0,0c0,0,0,0,0-0.1v0c0,0,0,0,0-0.1l1.6-2.4
		c0.2-0.3,0.3-0.7,0.3-1c0-0.4-0.2-0.9-0.5-1.2c-0.3-0.4-0.8-0.6-1.3-0.6c-0.6,0-1.2,0.3-1.5,0.7l-3,4.4c-0.1,0.1-0.2,0.2-0.3,0.2
		c-1,0.3-1.9,0.7-2.6,1.1c0,0-0.1,0-0.1,0.1c0,0,0,0,0,0c0,0,0,0,0-0.1V35.9c0-0.5-0.2-0.9-0.5-1.3c-0.3-0.3-0.8-0.5-1.3-0.5
		c-0.5,0-0.9,0.2-1.3,0.5c-0.3,0.3-0.5,0.8-0.5,1.3v20.9c0,0.5,0.2,0.9,0.5,1.3c0.3,0.3,0.8,0.5,1.3,0.5c0.5,0,0.9-0.2,1.3-0.5
		c0.3-0.3,0.5-0.8,0.5-1.3v-1.5c0-1,0.1-1.8,0.4-2.4c0.3-0.7,0.7-1.2,1.1-1.6c0.5-0.4,1-0.7,1.6-0.9c0.6-0.2,1.2-0.3,1.9-0.3
		c0.6,0,1.3,0.1,1.9,0.3c0.6,0.2,1.1,0.5,1.6,0.9c0.5,0.4,0.8,1,1.1,1.6c0.3,0.7,0.4,1.5,0.4,2.4v1.5c0,0.5,0.2,0.9,0.5,1.3
		c0.3,0.3,0.8,0.5,1.3,0.5h0c0,0,0,0,0,0c0.5,0,0.9-0.2,1.2-0.5c0.3-0.3,0.5-0.8,0.5-1.3v-1.5c0-1.2-0.2-2.3-0.5-3.2
		C141.4,51.2,141,50.3,140.4,49.6z"/>
</g>
</svg>
