<?xml version="1.0" encoding="utf-8"?>
<!-- Generator: Adobe Illustrator 24.1.0, SVG Export Plug-In . SVG Version: 6.00 Build 0)  -->
<svg version="1.1" id="Capa_1" xmlns="http://www.w3.org/2000/svg" xmlns:xlink="http://www.w3.org/1999/xlink" x="0px" y="0px"
	 viewBox="0 0 694 156" style="enable-background:new 0 0 694 156;" xml:space="preserve">
<style type="text/css">
	.st0{fill:#1D1D1B;}
</style>
<g>
	<path class="st0" d="M222.9,118c-1.6,0-3.1-0.6-4.3-1.7c-1.1-1.1-1.8-2.7-1.8-4.3v-5.2c0-3.2-0.5-5.9-1.4-8.1
		c-1-2.3-2.2-4.1-3.8-5.5c-1.6-1.4-3.4-2.5-5.4-3.2c-2.1-0.7-4.2-1-6.4-1.1c-2.2,0-4.4,0.3-6.4,1.1c-2,0.7-3.8,1.7-5.4,3.2
		c-1.5,1.4-2.8,3.2-3.8,5.5c-0.9,2.2-1.4,4.9-1.4,8.1v5.2c0,1.6-0.6,3.1-1.8,4.3c-1.1,1.1-2.7,1.8-4.3,1.7c-1.6,0-3.2-0.6-4.3-1.7
		c-1.2-1.1-1.8-2.7-1.8-4.3V41.5c0-1.6,0.6-3.2,1.8-4.2c1.1-1.1,2.7-1.8,4.3-1.8c1.6,0,3.1,0.6,4.3,1.8c1.1,1.1,1.8,2.7,1.8,4.3
		v39.9c0,0.2,0,0.1,0.1,0.3c0.1,0.1,0,0.1,0.1,0.1c0.1,0,0.2-0.1,0.3-0.2c2.6-1.5,5.4-2.7,8.8-3.7c0.4-0.1,0.7-0.3,1.1-0.7
		l10.2-14.8c1.1-1.6,3-2.6,5-2.5c1.6,0,3.3,0.7,4.4,1.9c1,1.1,1.7,2.5,1.7,4.1c0,1.3-0.4,2.5-1.1,3.5l-5.5,8.1
		c-0.2,0.3-0.2,0.4-0.2,0.4v0c0,0.1,0,0.1,0,0.2c0,0,0.1,0,0.1,0l0.1,0c2.8,0.8,5.4,1.9,7.9,3.5c2.6,1.6,4.8,3.6,6.7,6
		c1.9,2.4,3.5,5.3,4.6,8.5c1.1,3.3,1.7,6.9,1.6,10.9v5.2c0,1.6-0.6,3.1-1.8,4.3C226.1,117.3,224.6,118,222.9,118L222.9,118z
		 M207,81.9L207,81.9L207,81.9z"/>
	<path class="st0" d="M256.9,118c-3.5-1.2-6.6-3.1-9.3-5.6c-2.7-2.5-5-5.7-6.6-9.4c-1.7-3.8-2.6-8.2-2.6-13.2
		c0-4.9,0.8-9.3,2.5-13.2c1.7-3.7,3.9-6.9,6.7-9.4c2.7-2.5,5.9-4.3,9.4-5.6c3.4-1.2,6.9-1.8,10.5-1.8c3.7,0,7.4,0.7,10.9,2
		c2.3,0.9,4.5,2,6.6,3.5c0.3-0.7,0.7-1.3,1.3-1.9c1.1-1.1,2.7-1.8,4.3-1.7c1.6,0,3.1,0.6,4.3,1.8c1.1,1.1,1.8,2.7,1.8,4.3v25.9
		c0,1.2,0.1,2.5,0.4,3.8c0.3,1.3,0.7,2.5,1.2,3.8c0.5,1.2,1.2,2.3,1.9,3.3c0.8,1,1.6,1.7,2.4,2.3c0.8,0.5,1.4,1.1,1.9,1.9
		c0.6,0.9,1,2.1,1,3.2c0,0.4-0.1,0.8-0.1,1.3c-0.3,1.5-1.2,2.9-2.4,3.7c-0.9,0.6-2,1.1-3.2,1.1l-0.1,0l-0.3,0
		c-1.2,0-2.3-0.4-3.2-1.1c-1.5-1-2.8-2.1-3.9-3.3c-0.9-1-1.7-2.2-2.5-3.5c-2.7,3.2-6,5.6-9.8,7.2c-4,1.7-8.1,2.5-12.2,2.5
		C263.8,119.9,260.3,119.3,256.9,118 M250.4,89.9c0,3.3,0.5,6,1.4,8.2c1,2.3,2.2,4.1,3.8,5.5c1.6,1.5,3.3,2.5,5.4,3.2
		c2.1,0.7,4.2,1,6.4,1.1c2.2,0,4.3-0.3,6.4-1.1c2-0.7,3.8-1.7,5.3-3.1c1.6-1.5,2.9-3.3,3.8-5.6c0.9-2.2,1.5-4.9,1.5-8.2
		c0-3.2-0.5-5.9-1.5-8.2c-0.9-2.3-2.2-4.1-3.7-5.5c-1.6-1.4-3.4-2.5-5.4-3.2c-2.1-0.7-4.2-1-6.4-1c-2.2,0-4.4,0.4-6.4,1
		c-2,0.7-3.8,1.7-5.4,3.2c-1.5,1.4-2.8,3.2-3.8,5.5C250.9,84,250.4,86.6,250.4,89.9"/>
	<path class="st0" d="M345.9,119.9c-3.6,0-7.1-0.6-10.5-1.8c-3.5-1.2-6.6-3.1-9.4-5.6c-2.7-2.5-5-5.7-6.6-9.4
		c-1.7-3.8-2.6-8.2-2.6-13.2V74.1c0-0.5-0.1-0.6-0.4-0.9c-0.4-0.3-0.6-0.4-1-0.4h-3.3c-1.4,0-2.8-0.6-3.8-1.6c-1-1-1.6-2.4-1.6-3.8
		c0-1.4,0.6-2.9,1.7-3.9c1-1,2.4-1.5,3.8-1.5h3.3c0.4,0,0.6-0.1,0.9-0.4c0.3-0.4,0.4-0.5,0.4-0.9v-19c0-1.6,0.6-3.2,1.8-4.3
		c1.1-1.2,2.7-1.8,4.3-1.8c1.6,0,3.1,0.6,4.2,1.8c1.2,1.1,1.8,2.7,1.8,4.3v19c0,0.4,0.1,0.5,0.4,0.9c0.4,0.4,0.6,0.4,0.9,0.4h11.9
		c1.4,0,2.8,0.6,3.8,1.5c1.1,1,1.7,2.5,1.7,3.9c0,1.4-0.6,2.8-1.6,3.8c-1,1-2.4,1.6-3.8,1.6h-11.9c-0.4,0-0.6,0.1-1,0.4
		c-0.3,0.3-0.4,0.5-0.4,1V90c0,3.2,0.5,5.9,1.5,8.1c1,2.3,2.2,4.1,3.8,5.6c1.6,1.5,3.4,2.5,5.4,3.2c2.1,0.7,4.2,1.1,6.4,1.1
		c1.6,0,3.1,0.6,4.2,1.7c1.1,1.1,1.8,2.7,1.8,4.3c0,1.6-0.6,3.1-1.8,4.3C349.1,119.3,347.5,119.9,345.9,119.9L345.9,119.9z"/>
	<path class="st0" d="M378.3,118c-3.5-1.2-6.6-3.1-9.3-5.6c-2.7-2.5-5-5.7-6.7-9.4c-1.7-3.8-2.5-8.2-2.5-13.2
		c0-4.9,0.8-9.3,2.5-13.2c1.7-3.7,3.9-6.9,6.7-9.4c2.7-2.5,5.9-4.3,9.4-5.6c3.4-1.2,6.9-1.8,10.5-1.8c3.7,0,7.4,0.7,10.9,2
		c2.3,0.9,4.5,2,6.6,3.5c0.3-0.7,0.7-1.3,1.3-1.9c1.1-1.1,2.7-1.8,4.2-1.7c1.6,0,3.2,0.6,4.3,1.8c1.1,1.1,1.8,2.7,1.8,4.3v25.9
		c0,1.2,0.1,2.5,0.4,3.8c0.3,1.3,0.7,2.5,1.2,3.8c0.5,1.2,1.1,2.3,1.9,3.3c0.8,1,1.6,1.7,2.4,2.3c0.8,0.5,1.4,1.1,1.9,1.9
		c0.6,0.9,1,2.1,0.9,3.2c0,0.4,0,0.8-0.1,1.3c-0.3,1.5-1.2,2.9-2.4,3.7c-0.9,0.6-2,1.1-3.2,1.1l-0.1,0l-0.4,0
		c-1.2,0-2.3-0.4-3.2-1.1c-1.5-1-2.8-2.1-3.9-3.3c-0.9-1-1.7-2.2-2.5-3.5c-2.7,3.2-6,5.6-9.8,7.2c-4,1.7-8.1,2.5-12.2,2.5
		C385.2,119.9,381.7,119.3,378.3,118 M371.8,89.9c0,3.3,0.5,6,1.4,8.2c1,2.3,2.2,4.1,3.8,5.5c1.6,1.5,3.4,2.5,5.4,3.2
		c2.1,0.7,4.2,1,6.4,1.1c2.2,0,4.3-0.3,6.4-1.1c2-0.7,3.8-1.7,5.3-3.1c1.6-1.5,2.8-3.3,3.8-5.6c0.9-2.2,1.4-4.9,1.4-8.2
		c0-3.2-0.5-5.9-1.5-8.2c-0.9-2.3-2.2-4.1-3.7-5.5c-1.6-1.4-3.4-2.5-5.4-3.2c-2.1-0.7-4.2-1-6.4-1c-2.2,0-4.4,0.4-6.4,1
		c-2,0.7-3.8,1.7-5.4,3.2c-1.5,1.4-2.8,3.2-3.8,5.5v0C372.3,84,371.8,86.7,371.8,89.9"/>
	<path class="st0" d="M491,118.6c-1.6,0-3.2-0.6-4.3-1.8c-1.1-1.1-1.8-2.7-1.8-4.2v-5.2c0-3.2-0.5-5.9-1.4-8.1
		c-1-2.3-2.2-4.1-3.8-5.5c-1.6-1.4-3.4-2.5-5.4-3.2c-2.1-0.7-4.2-1-6.4-1.1c-2.2,0-4.4,0.3-6.4,1.1c-2,0.7-3.8,1.7-5.4,3.2
		c-1.5,1.4-2.8,3.2-3.8,5.5c-0.9,2.2-1.4,4.9-1.4,8.1v5.2c0,1.6-0.6,3.1-1.8,4.2c-1.1,1.1-2.7,1.8-4.3,1.8c-1.6,0-3.2-0.6-4.3-1.8
		c-1.1-1.1-1.8-2.7-1.8-4.2V42.2c0-1.6,0.6-3.1,1.8-4.3c1.1-1.1,2.7-1.8,4.3-1.7c1.6,0,3.1,0.6,4.3,1.7c1.1,1.1,1.8,2.7,1.8,4.3
		v39.9c0,0.2,0,0.2,0.1,0.3c0.1,0.1,0,0.1,0.1,0.1c0.1,0,0.2-0.1,0.4-0.2c2.5-1.5,5.4-2.7,8.8-3.7c0.4-0.1,0.7-0.3,1.1-0.7L471.7,63
		c1.1-1.6,3-2.6,5-2.5c1.6,0,3.3,0.6,4.4,1.9c1,1.1,1.7,2.5,1.6,4c0,1.3-0.4,2.5-1.1,3.5L476,78c-0.2,0.3-0.2,0.4-0.2,0.4v0
		c0,0.1,0,0.2,0,0.2c0,0,0.1,0,0.1,0.1h0.1c2.8,0.8,5.4,1.9,8,3.5c2.6,1.6,4.8,3.6,6.7,6c1.9,2.4,3.5,5.3,4.6,8.5
		c1.1,3.3,1.7,6.9,1.7,10.9v5.2c0,1.6-0.6,3.1-1.8,4.3C494.2,118,492.6,118.6,491,118.6L491,118.6z"/>
	<path class="st0" d="M515.5,118.6c-1.6,0-3.1-0.6-4.3-1.8c-1.1-1.1-1.8-2.7-1.8-4.2V90.5c0-4.9,0.8-9.4,2.5-13.2
		c1.6-3.7,3.9-6.9,6.7-9.4c2.7-2.5,5.9-4.3,9.4-5.5c3.4-1.2,7-1.8,10.5-1.8c4.5,0,8.8,0.9,12.8,2.7c1,0.5,1.8,1.3,2.4,2.2
		c0.6,1,1,2.1,1,3.3c0,1.6-0.6,3.2-1.8,4.3c-1.1,1.1-2.7,1.8-4.3,1.8c-0.8,0-1.7-0.1-2.5-0.5c-2.4-1.1-4.9-1.6-7.6-1.7
		c-2.3,0-4.4,0.4-6.4,1.1c-2,0.7-3.8,1.7-5.4,3.2c-1.5,1.4-2.8,3.2-3.8,5.5c-0.9,2.2-1.4,4.9-1.4,8.1v22.1c0,1.6-0.6,3.1-1.8,4.2
		C518.7,118,517.2,118.6,515.5,118.6L515.5,118.6z"/>
	<path class="st0" d="M576.3,118.7c-3.5-1.2-6.6-3.1-9.4-5.6c-2.7-2.5-5-5.7-6.6-9.4c-1.7-3.8-2.6-8.2-2.6-13.2
		c0-4.9,0.8-9.3,2.5-13.2c1.7-3.7,3.9-6.9,6.7-9.4c2.7-2.5,5.9-4.3,9.4-5.6c3.4-1.2,6.9-1.8,10.5-1.8c3.7,0,7.4,0.7,10.9,2
		c2.4,0.9,4.5,2,6.6,3.5c0.3-0.7,0.7-1.3,1.3-1.9c1.1-1.1,2.7-1.8,4.3-1.7c1.6,0,3.2,0.6,4.3,1.8c1.1,1.1,1.8,2.7,1.8,4.3v25.9
		c0,1.2,0.1,2.5,0.4,3.8c0.3,1.3,0.6,2.5,1.2,3.8c0.5,1.2,1.2,2.3,1.9,3.3c0.7,1,1.6,1.7,2.4,2.3c0.8,0.5,1.4,1.1,1.9,1.9
		c0.6,0.9,0.9,2.1,0.9,3.2c0,0.4-0.1,0.9-0.1,1.3c-0.3,1.5-1.1,2.9-2.4,3.7c-0.9,0.7-2,1.1-3.2,1.1l0,0l-0.4,0
		c-1.1,0-2.3-0.4-3.2-1.1c-1.5-1-2.8-2.1-3.9-3.3c-0.9-1-1.8-2.2-2.5-3.5c-2.7,3.2-6,5.6-9.8,7.2c-4,1.7-8.1,2.5-12.2,2.5h-0.1
		C583.2,120.5,579.7,119.9,576.3,118.7 M571.2,82.3c-0.9,2.2-1.4,4.9-1.4,8.2c0,3.3,0.5,6,1.4,8.2c1,2.3,2.2,4.1,3.8,5.5
		c1.6,1.5,3.3,2.5,5.4,3.2c2.1,0.7,4.2,1.1,6.4,1.1c2.2,0,4.3-0.4,6.4-1.1c2-0.7,3.8-1.7,5.3-3.2c1.6-1.5,2.9-3.3,3.8-5.6
		c0.9-2.2,1.4-4.9,1.4-8.2c0-3.2-0.5-5.9-1.5-8.2c-1-2.3-2.2-4.1-3.7-5.5c-1.6-1.4-3.4-2.5-5.4-3.2c-2.1-0.7-4.2-1-6.4-1.1
		c-2.2,0-4.4,0.3-6.4,1.1c-2,0.7-3.8,1.7-5.4,3.2C573.5,78.3,572.2,80.1,571.2,82.3L571.2,82.3z"/>
	<path class="st0" d="M686,118.6c-1.6,0-3.2-0.6-4.3-1.8c-1.1-1.1-1.8-2.7-1.8-4.2v-5.2c0-3.2-0.5-5.9-1.4-8.1
		c-1-2.3-2.2-4.1-3.8-5.5c-1.6-1.4-3.4-2.5-5.4-3.2c-2.1-0.7-4.2-1-6.4-1.1c-2.2,0-4.4,0.3-6.4,1.1c-2,0.7-3.8,1.7-5.3,3.2
		c-1.5,1.4-2.8,3.2-3.8,5.5c-0.9,2.2-1.4,4.9-1.4,8.1v5.2c0,1.6-0.6,3.1-1.7,4.2c-1.1,1.1-2.7,1.8-4.3,1.8c-1.6,0-3.2-0.6-4.3-1.8
		c-1.1-1.1-1.8-2.7-1.8-4.2V42.2c0-1.6,0.6-3.1,1.8-4.3c1.1-1.1,2.7-1.8,4.3-1.7c1.6,0,3.1,0.6,4.3,1.7c1.1,1.1,1.8,2.7,1.8,4.3
		v39.9c0,0.2,0,0.1,0.1,0.3c0.1,0.1,0,0.1,0.2,0.1c0.1,0,0.2-0.1,0.3-0.2c2.5-1.5,5.4-2.7,8.8-3.7c0.4-0.1,0.7-0.3,1.1-0.7L666.7,63
		c1.1-1.6,3-2.6,5-2.5c1.6,0,3.3,0.6,4.4,1.9c1,1.1,1.7,2.5,1.6,4c0,1.3-0.4,2.5-1.1,3.5l-5.5,8.1c-0.2,0.3-0.2,0.3-0.2,0.3v0
		c0,0.1,0,0.2,0,0.2c0,0,0.1,0,0.1,0.1h0.1c2.8,0.8,5.4,1.9,8,3.5c2.6,1.6,4.8,3.6,6.7,6c1.9,2.4,3.4,5.3,4.5,8.5
		c1.1,3.3,1.7,6.9,1.7,10.9v5.2c0,1.6-0.6,3.1-1.8,4.2C689.2,118,687.7,118.6,686,118.6L686,118.6z"/>
</g>
<g>
	<path class="st0" d="M126,7.8l-27.7,43l-13.7,0.9L42,19.2l7.4,43c0,0-36.4,6.9-42.7,16.9c-6.3,10-0.5,42.6,6.8,50
		c7.4,7.4,112.7,13.2,112.7,13.2l4.7-87.5L126,7.8z M40.6,106c-16.4-7.6-27-22.9-27-22.9s14.1-3.2,27.5-2.6c-0.5,3.2-0.8,7-0.8,11.1
		c0,6,0.6,11.3,1.6,15C41.4,106.4,40.9,106.2,40.6,106 M47.9,108.3c1.3-3.6,2.2-9.8,2.2-16.7c0-3.7-0.3-7.1-0.7-10.1
		c2.6,0.5,5,1.2,7,2.3c14.1,7,16.4,20.5,17.6,25.3C75,112.6,58.6,110.8,47.9,108.3 M79.9,104.2c0.8-3.2,2.4-12.6,12.2-17.4
		c1.1-0.6,2.4-1,3.7-1.3C95.3,87.9,95,91,95,94.4c0,3.8,0.4,7.3,1,9.8C88.7,105.7,79.4,106.5,79.9,104.2 M103,102.2
		c-0.5,0.2-1.2,0.5-1.9,0.7c0.5-2.3,0.7-5.3,0.7-8.5c0-3.8-0.4-7.2-1-9.7c9.7-0.8,20.8,1.7,20.8,1.7S114.4,96.9,103,102.2"/>
</g>
</svg>
