<?xml version="1.0" encoding="utf-8"?>
<!-- Generator: Adobe Illustrator 24.1.0, SVG Export Plug-In . SVG Version: 6.00 Build 0)  -->
<svg version="1.1" id="Layer_1" xmlns="http://www.w3.org/2000/svg" xmlns:xlink="http://www.w3.org/1999/xlink" x="0px" y="0px"
	 viewBox="0 0 56.7 56.7" style="enable-background:new 0 0 56.7 56.7;" xml:space="preserve">
<style type="text/css">
	.st0{fill:#FFFFFF;}
</style>
<path class="st0" d="M45.5,9H11.2c-3.6,0-6.4,2.9-6.4,6.4v25.8c0,3.6,2.9,6.4,6.4,6.4h34.4c3.6,0,6.4-2.9,6.4-6.4V15.5
	C52,11.9,49.1,9,45.5,9z M45.5,13.3c0.2,0,0.5,0,0.7,0.1L28.3,27.7L10.5,13.4c0.2-0.1,0.5-0.1,0.7-0.1H45.5z M45.5,43.4H11.2
	c-1.2,0-2.1-1-2.1-2.1V17.8l18,14.4c0.4,0.3,0.9,0.5,1.3,0.5s0.9-0.2,1.3-0.5l18-14.4v23.4C47.7,42.4,46.7,43.4,45.5,43.4z"/>
</svg>
