<?xml version="1.0" encoding="utf-8"?>
<!-- Generator: Adobe Illustrator 24.1.0, SVG Export Plug-In . SVG Version: 6.00 Build 0)  -->
<svg version="1.1" id="Layer_1" xmlns="http://www.w3.org/2000/svg" xmlns:xlink="http://www.w3.org/1999/xlink" x="0px" y="0px"
	 viewBox="0 0 56.7 56.7" style="enable-background:new 0 0 56.7 56.7;" xml:space="preserve">
<style type="text/css">
	.st0{fill:#FFFFFF;}
</style>
<g>
	<path class="st0" d="M6.5,30.4c-0.9,0-1.7,0.8-1.7,1.7v5.5c0,0.9,0.8,1.7,1.7,1.7s1.7-0.8,1.7-1.7v-5.5C8.2,31.2,7.5,30.4,6.5,30.4
		z"/>
	<path class="st0" d="M13.2,26.8c-0.9,0-1.7,0.8-1.7,1.7v11.2c0,0.9,0.8,1.7,1.7,1.7c0.9,0,1.7-0.8,1.7-1.7V28.4
		C14.9,27.5,14.2,26.8,13.2,26.8z"/>
	<path class="st0" d="M20,21.2c-0.9,0-1.7,0.8-1.7,1.7v16.8c0,0.9,0.8,1.7,1.7,1.7s1.7-0.8,1.7-1.7V22.8
		C21.6,21.9,20.9,21.2,20,21.2z"/>
	<path class="st0" d="M26.7,16.7c-0.9,0-1.7,0.8-1.7,1.7v21.3c0,0.9,0.8,1.7,1.7,1.7s1.7-0.8,1.7-1.7V18.4
		C28.3,17.4,27.6,16.7,26.7,16.7z"/>
	<path class="st0" d="M45.4,28.3c-0.6,0-1.2,0.1-1.7,0.3c0.3-0.9,0.4-1.9,0.4-2.9c0-5.7-4.6-10.4-10.4-10.4c-0.7,0-1.3,0.1-2,0.2
		v25.7h13.7c3.6,0,6.5-2.9,6.5-6.5S48.9,28.3,45.4,28.3z"/>
</g>
</svg>
