<?xml version="1.0" encoding="utf-8"?>
<!-- Generator: Adobe Illustrator 25.0.1, SVG Export Plug-In . SVG Version: 6.00 Build 0)  -->
<svg version="1.1"
	 id="svg4209" inkscape:version="0.48.5 r10040" sodipodi:docname="IconoAlergenoPescado-Fish.svg" xmlns:cc="http://creativecommons.org/ns#" xmlns:dc="http://purl.org/dc/elements/1.1/" xmlns:inkscape="http://www.inkscape.org/namespaces/inkscape" xmlns:rdf="http://www.w3.org/1999/02/22-rdf-syntax-ns#" xmlns:sodipodi="http://sodipodi.sourceforge.net/DTD/sodipodi-0.dtd" xmlns:svg="http://www.w3.org/2000/svg"
	 xmlns="http://www.w3.org/2000/svg" xmlns:xlink="http://www.w3.org/1999/xlink" x="0px" y="0px" viewBox="0 0 200 200"
	 style="enable-background:new 0 0 200 200;" xml:space="preserve">
<style type="text/css">
	.st0{fill:#7F7F7F;stroke:#C3EAD8;stroke-width:0.2788;stroke-miterlimit:22.3065;}
	.st1{fill:#FFFFFF;}
</style>
<sodipodi:namedview  bordercolor="#666666" borderopacity="1.0" id="base" inkscape:current-layer="layer1" inkscape:cx="487.44456" inkscape:cy="621.26637" inkscape:document-units="px" inkscape:pageopacity="0.0" inkscape:pageshadow="2" inkscape:window-height="924" inkscape:window-maximized="1" inkscape:window-width="1280" inkscape:window-x="0" inkscape:window-y="28" inkscape:zoom="0.32234025" pagecolor="#ffffff" showgrid="false">
	</sodipodi:namedview>
<circle class="st0" cx="100" cy="100" r="94.5"/>
<g>
	<path class="st1" d="M165,100.1l-0.2-1l-0.3-0.9l-0.6-1.1l-0.8-1.1l-0.7-0.6l-0.6-0.6c0,0-0.1,0-0.1,0l-17.4,8.7l16.9-9.6
		c0,0,0,0,0-0.1l0.2-0.7c0,0,0,0,0,0l-0.1-1.7l-0.4-1.7c0,0,0,0,0,0l-0.7-1.1l-1.1-1.1l-1.2-0.9c0,0,0,0,0,0l-2-0.6l-3.2-0.3
		l-2.8,0.2l-2.9,0.4L143,87l-3.9,1.2l-3,1.5l-2.4,1.9l-2.3,2.2l-2.4,3.5l-1.9,4.1c0,0,0,0,0,0l-0.3,1l-0.4,1.6l-0.1,1.5l0,1.3
		l0.1,1.3l0.1,0.8l0.2,0.9l0.3,0.8l0.6,1.1l1.1,1.7l1,1.2l0.8,1l1.3,1.2l1,0.8l1.8,1l0.8,0.3l0.9,0.3l1.1,0.2l1,0.1l1.3,0.1l1-0.1
		l1.1-0.1l2.2-0.5l2.8-1l2.4-1.1l2.1-1l2.4-1.3l2.7-1.7l1.6-1.2l1.8-1.5l0.9-0.8l1.3-1.4l0.7-0.9l0.8-1.2l0.6-1.1l0.5-1.2l0.3-1
		l0.2-1.5L165,100.1z"/>
	<path class="st1" d="M133.2,139.7l-0.5-2.5l-0.4-2.2l-1-3l-1.4-2.9l-0.9-1.8l-1.1-2.1l-0.6-1l-1.1-1.5l-0.8-0.9l-1-1l-1-0.9
		l-0.7-0.7c0,0,0,0,0,0l-2.5-1.4c0,0,0,0,0,0l-1.3-0.3c0,0,0,0,0,0h0l-1,0l-1.1,0.1l-1.1,0.2c0,0,0,0,0,0l-1.2,0.8l-0.9,0.6
		c0,0,0,0,0,0l-0.6,0.9c0,0,0,0.1,0,0.1l4.6,21.7l-5.6-21.4c0,0,0-0.1-0.1-0.1l-0.6-0.3c0,0,0,0,0,0l-1.7-0.3l-1.7,0c0,0,0,0,0,0
		l-1.2,0.5l-1.3,0.9l-1.1,1c0,0,0,0,0,0l-1,1.8l-1.2,2.5c0,0,0,0,0,0l-0.5,3.1l-0.2,3.1l0.4,3.9l0.3,4.1l0.9,3.2l1,3.1l1.3,3
		l2.4,3.7c0,0,0,0,0,0l4.1,2.8c0,0,0,0,0,0l1.8,0.6l1.9,0.6l1.3,0.2l1.2,0.1l1.2,0l1.1,0l2.2-0.2l1.5-0.2l1.6-0.6c0,0,0,0,0,0l1.4-1
		l1-0.9l1-1l0.7-1l1.4-1.5l0.5-0.7l0.5-0.9l0.5-1l0.4-1l0.4-1.3l0.2-1l0.1-1.1l0-2.2L133.2,139.7z"/>
	<path class="st1" d="M107.5,99.8l5.5-4.3l6-4.3c0,0,0.1-0.1,0.1-0.1l4-3l4.5-3.3c0.2-0.2,0.4-0.4,0.6-0.6l2.4-2.7
		c0.2-0.3,0.4-0.5,0.6-0.8l2.4-4.9c0.2-0.3,0.3-0.7,0.3-1l1-5.1c0-0.2,0.1-0.4,0.1-0.6l0.2-5.8c0-0.3,0-0.5-0.1-0.8l-0.8-4.9
		c-0.1-0.5-0.2-0.9-0.5-1.3l-2.7-4.6c-0.3-0.4-0.6-0.8-1-1.1l-4.9-3.8c-0.2-0.1-0.3-0.2-0.5-0.4l-6-3.3c-0.5-0.3-1-0.4-1.5-0.5
		l-7.1-0.7c-0.3,0-0.6,0-0.9,0l-6.7,0.9c-0.2,0-0.4,0.1-0.7,0.1l-5.7,1.8c-0.4,0.1-0.7,0.3-1.1,0.5l-3.8,2.6
		c-0.2,0.1-0.4,0.3-0.6,0.5l-5,5c-0.2,0.2-0.3,0.4-0.5,0.6l-3.6,5.3c0,0.1-0.1,0.1-0.1,0.2l-4,6.9c0,0,0,0.1-0.1,0.1l-3.7,6.9
		c-0.1,0.1-0.1,0.3-0.2,0.4l-2.5,6.2l-3,0.9c-0.1,0-0.1,0-0.2,0.1l-4.7,1.7c-0.2,0.1-0.3,0.1-0.5,0.2l-4.9,2.5
		c-0.1,0.1-0.3,0.1-0.4,0.2l-7.3,4.8c-0.2,0.2-0.5,0.4-0.7,0.6L44,96.6c-0.1,0.1-0.3,0.3-0.4,0.5l-3.5,5c-0.1,0.2-0.3,0.4-0.4,0.7
		l-3.1,7.1c-0.1,0.2-0.2,0.4-0.2,0.7l-1.4,6c-0.1,0.5-0.1,1-0.1,1.5l1.4,10.2c0.1,0.7,0.3,1.3,0.7,1.8l2.8,3.7
		c0.3,0.4,0.6,0.7,1,0.9l3.1,2c0.3,0.2,0.7,0.4,1.1,0.5l4,1.2c0.2,0.1,0.4,0.1,0.7,0.1l6.2,0.7c0.1,0,0.3,0,0.4,0c0.1,0,0.1,0,0.2,0
		l7.6-0.4c0.1,0,0.3,0,0.4,0l8.3-1.3c0.2,0,0.4-0.1,0.6-0.2l8.3-2.8c0.4-0.1,0.7-0.3,1-0.5l5-3.5c0.1-0.1,0.2-0.2,0.3-0.3l4.6-4
		c0.3-0.2,0.5-0.5,0.7-0.8l3.9-6.1c0.1-0.2,0.2-0.4,0.3-0.6l3.3-8.1l3.9-7L107.5,99.8z M95.4,93.7l-1.5-1.5l-3.6-2.4l1.1-1.5
		l5.9-7.7l3.2-5.7l5.6,4.3l-3.5,5.4l-4.9,6.4L95.4,93.7z M72.4,120.1l-0.3-0.4l-4.7-4.2l3.7-3.3l6.3-6.5l0.5-0.6l0.9,0.7l3.9,4.1
		l0.2,0.4l0,0l-5.1,5.6l-5.1,3.8L72.4,120.1z M98.5,59.8l6.3,2l-4.2,9.2l-0.8,1.4l-6.2-2.1l2.6-5.4L98.5,59.8z M92,73.7l0.9-1.9
		l6.2,2.1l-3.1,5.7l-5.9,7.7l-1.2,1.7l-5.1-2.6L92,73.7z M82.8,87.7l5.1,2.6l-3.5,4.8l-6.8,7.8l-3.7-2.6l-2.9-1.2L82.8,87.7z
		 M73.1,101.7l3.5,2.5l-0.4,0.4L70,111l-3.9,3.4l-6.3-3.4l-1.9-0.8l5.1-3.7l6.8-6.2L73.1,101.7z M84.1,109l-4.1-4.4l-1-0.7l6.7-7.8
		l3.6-5l3.4,2.2l1.6,1.6l-5,7.7l-3.6,4.5L84.1,109L84.1,109z M101.3,73.4l0.9-1.6l4.2-9.3l5.5,2.8l-0.3,0.9l-3.5,9.6l-1.2,1.9
		L101.3,73.4z M109.6,76.7l3.6-9.9l0.2-0.5l5.7,4.1l-0.1,0.5l-5.1,14.1l-5.6-6.1L109.6,76.7z M122.6,78.7l-4.2,3.1c0,0,0,0-0.1,0.1
		l-2.1,1.6l4.4-12.2l4.6,3.8l-0.8,1.6L122.6,78.7z M126.7,59.5l0.7,3.8l-0.2,5.1l-0.8,4.3l-0.4,0.8l-4.8-3.9l-0.1-0.1l1-3.6l0.7-5
		l1.1-5.5l0.9,0.7L126.7,59.5z M122.4,54.3l-1.2,6.3l-0.7,4.9l-0.8,3l-5.7-4l2.4-7.7l1.8-5.2l2.6,1.4L122.4,54.3z M115.7,50.2l1,0.5
		l-1.9,5.5l-2.3,7.4l-5.4-2.8l2.1-7.6l0.6-3.6l0.1,0L115.7,50.2z M103.9,50.5l4.1-0.5l-0.5,3l-2.1,7.4l-6.4-2l0.3-6.4L103.9,50.5z
		 M96.1,54l1.6-1.1l-0.3,4.9L93.1,57L96.1,54z M88.3,63.4l3.3-4.9l0.1-0.1l5.3,1l-2.1,4.8L92,69.9l-7.2-0.6L88.3,63.4z M77.8,84.5
		l3.1-7.7l3.1-5.8l7.3,0.5l-0.7,1.4l-8.4,13l-2.4-0.7l-2.3,0C77.6,84.9,77.7,84.7,77.8,84.5z M61.7,92l4.4-2.3l4.4-1.6l4.7-1.4
		c0,0,0.1,0,0.1,0v0h4.1l1.5,0.4L69.4,98.4l-2.4-1l-7.6-2.1l-2.3-0.3L61.7,92z M49.9,101.8l5-5.3l0.1-0.1L59,97l7.4,2l1.6,0.7
		l-6.1,5.6l-5.9,4.3l-1.9-0.7l-7.7-1.7l0.4-0.8L49.9,101.8z M44,112.7l1.8-4l7.8,1.8l0.9,0.4l-6,4.8l-2.7,2.4l-2.6,1.9l-0.3-2.2
		L44,112.7z M44,126.1l-0.6-4.4l3.4-2.4l2.8-2.4l6.7-5.4l2.8,1.1l5.8,3l-2.4,2.2l-13.9,10.8l-1.3,0.7l-1.3-0.9L44,126.1z
		 M56.4,131.3l-5.6-0.6l-1.8-0.5l0.2-0.1l14.1-10.9l2.8-2.4l4.7,4.2l0.3,0.3l-12.1,10L56.4,131.3z M71.3,129.7l-7.8,1.2l-1.7,0.1
		l10.4-8.6l1.5,1.7l3,3.7L71.3,129.7z M87,120.6l-4,3.5l-4.3,3.1l-0.3,0.1L75,123l-1.5-1.7l0.3-0.2l5.1-3.9l4.9-5.4l0.8,1.3l3.2,6.1
		L87,120.6z M94,106.8c-0.1,0.1-0.1,0.3-0.2,0.4l-3.3,8l-1.5,2.3l-2.8-5.3l-1.1-1.8l2-2.2l3.7-4.6l4.9-7.5l2.7,3
		c-0.1,0.1-0.1,0.2-0.2,0.3L94,106.8z M101.4,94.8l-2.1,3l-2.7-2.9l2.3-2.9l5-6.5l3.4-5.3l5.4,5.8l-4.4,3.1c0,0-0.1,0.1-0.1,0.1
		l-6,4.7C101.9,94.2,101.6,94.5,101.4,94.8z"/>
</g>
</svg>
