<?xml version="1.0" encoding="utf-8"?>
<!-- Generator: Adobe Illustrator 25.0.1, SVG Export Plug-In . SVG Version: 6.00 Build 0)  -->
<svg version="1.1"
	 id="svg4209" inkscape:version="0.48.5 r10040" sodipodi:docname="IconoAlergenoPescado-Fish.svg" xmlns:cc="http://creativecommons.org/ns#" xmlns:dc="http://purl.org/dc/elements/1.1/" xmlns:inkscape="http://www.inkscape.org/namespaces/inkscape" xmlns:rdf="http://www.w3.org/1999/02/22-rdf-syntax-ns#" xmlns:sodipodi="http://sodipodi.sourceforge.net/DTD/sodipodi-0.dtd" xmlns:svg="http://www.w3.org/2000/svg"
	 xmlns="http://www.w3.org/2000/svg" xmlns:xlink="http://www.w3.org/1999/xlink" x="0px" y="0px" viewBox="0 0 200 200"
	 style="enable-background:new 0 0 200 200;" xml:space="preserve">
<style type="text/css">
	.st0{fill:#7F7F7F;stroke:#C3EAD8;stroke-width:0.2788;stroke-miterlimit:22.3065;}
	.st1{fill:#FFFFFF;stroke:#FFFFFF;stroke-width:0.2788;stroke-miterlimit:22.3065;}
</style>
<sodipodi:namedview  bordercolor="#666666" borderopacity="1.0" id="base" inkscape:current-layer="layer1" inkscape:cx="487.44456" inkscape:cy="621.26637" inkscape:document-units="px" inkscape:pageopacity="0.0" inkscape:pageshadow="2" inkscape:window-height="924" inkscape:window-maximized="1" inkscape:window-width="1280" inkscape:window-x="0" inkscape:window-y="28" inkscape:zoom="0.32234025" pagecolor="#ffffff" showgrid="false">
	</sodipodi:namedview>
<circle class="st0" cx="100" cy="100" r="94.5"/>
<g>
	<path class="st1" d="M124.1,135.9c1.1-1.1,2.6-2.1,3.3-3.2c0.8-1.5,1.4-3.1,1.9-4.8l1.2-4.2l1.1-9.4l0.1-5.2l-0.5-1.2l-0.3-0.7
		l-1.3-2.2l-1.7-2.5l-1.5-3.4l-0.5-1.3l-1.4-3.5l-1.2-2.3l-0.4-0.8l-1.3-2.2l-1.1-1.1l-1.7-1.2l-1.7-0.8l-2.7-1.4l-1.2-1.4l-0.6-0.7
		l-0.3-2l-0.4-1.1l-0.9-0.6l-1.1,0l-0.9,0.3l-0.7,0.3l-0.5,0.2l-1.3,0.9l-0.7,0.3l-0.9,0.2l-1.1,0l-1,0l-1.2-0.2l-0.9,0l-0.3,0.3
		l-0.5,0l-0.1,0.4L99.4,81l-0.6-0.1c-0.1-0.1,0-0.2-0.3-0.3l-1.6,0L95,80.9l-1.8-0.4l-2-1.3l-1.9-0.7l-1.8,0.4l-0.6,1.3l-0.5,1.7
		l-0.4,0.9l-0.9,1.1l-1.6,1.2l-3.5,1.7L77.4,89l-1.7,2.5l-3.1,7.8l-1.7,3.8l-1.4,1.7l-1.4,2.5l-0.8,4.1l0.9,9.9l1.6,7.3l2,4.4
		l6.4,5.3c3.6,2.1,7.2,4.8,10.9,6.3c3.5,0,7.1,0.2,10.4,0l3.9,0.1l7-0.1l3.4-1.7l4.5-2.9L124.1,135.9z"/>
	<path class="st1" d="M51.8,82l1.1,3.5l1.2,2.1l1.4,1.3l1.2,0.9l1.4,2.5L59,94l2.1,3.9l2.1,2.7l1.4,1.7l1.3,1.4l0.8,0.8
		c0.5-0.1,0.4-0.3,0.7,0.2h0l1.6-2h0.1l0.6-0.9l1.6-4.4l1.4-4l-7-5.4l1.3-2l0.9-3l0-4.9L67,73.6l3.4-1.9l4.8-3.8l5.2-5.6l2.9-5.6
		l1.1-5.7c-0.1-1.4-0.1-2.5-0.6-4.6l-0.5-2.2l-1.6,3l-2.3,3.7l-2.9,3.4L73.8,57l-3.1,2.5l-2.9,1.9l-2,1.1l0.1-4.1l1.6-8.5l2.6-6.8
		l2.6-6.1l-2.9,2.1l-4.3,2.7l-2.1,1.6l-3.1,3.1l-2.6,3.3l-2.4,3.4L53,58.3L51,65.1l-0.6,4.6l-0.1,3.6l0.6,5.3L51.8,82z"/>
	<polygon class="st1" points="62.5,133.1 63.5,132.5 64.7,131.9 66.5,131.2 67.8,130.9 68.3,130.7 67.4,131.3 66.6,131.9 
		65.2,133.2 64.5,134.1 63.7,135.5 62.9,137.1 62.4,138.4 62.2,139.2 62.3,140.1 62.5,141.3 63.4,142.1 64.1,142.3 64.5,142.3 
		65.1,142.7 65.9,142.9 67,142.5 68,141.8 69.2,140.5 70.4,139.8 72.7,138.4 74.2,137.7 74.5,137.5 73.6,136.8 72.3,135.8 
		71.4,134.8 70.5,133.5 69.8,132.5 68.5,129.3 67.8,127.3 66.9,123.3 66.8,122.1 66,116.3 65.8,113.5 65.9,109.8 66,109 66.1,108.7 
		66.1,108.5 66.2,107.6 66.8,106.3 67.2,105.5 67.4,105.2 64,104.1 61.4,103.2 58.7,102.5 57.2,102.2 56,102 55.2,102.1 54.5,102.4 
		54,102.8 53.1,103.6 52.6,104 52.3,104.6 52.3,105.3 52.5,106.1 53.2,107.1 54.1,108 55,108.7 56.5,109.8 58.3,110.8 59.8,111.5 
		61.4,112.2 64.7,113.6 61.6,114 58.1,114.6 55.2,114.9 53.2,115.2 52.2,115.7 51.5,116.5 51.1,117.6 50.7,118.7 50.8,119.8 
		51.4,120.7 52.5,121.3 53.8,121.8 55.5,122.2 57,122.4 59,122.5 61.2,122.5 63.1,122.3 65.1,122.1 65.6,122 64.8,122.3 63.5,122.7 
		61,123.9 58.7,125.4 57.5,126.4 56.4,127.5 55.1,128.9 54.1,130.4 53.6,131.5 53.4,133 53.9,134.1 54.6,134.8 55.2,135.2 
		55.9,135.6 56.8,135.8 57.6,135.6 58.8,135.2 59.8,134.7 61.1,134 	"/>
	<polygon class="st1" points="43.8,89.8 43.2,90.4 43,91.2 43.2,92.2 43.4,93.4 43.9,94.6 44.1,95.4 44.4,96 44.7,96.6 45,97.3 
		45.7,98.6 46.5,99.9 47.3,100.8 48.1,101.9 48.6,102.5 49.1,102.8 49.7,103.2 50.3,103.2 51.1,103.2 51.8,102.9 52.5,102.1 
		52.9,101.1 53,100.2 52.6,98.7 51.8,97.8 50.3,96 48.7,93.6 47.5,91.8 46.8,90.8 46,90 45.5,89.7 44.6,89.5 	"/>
	<polygon class="st1" points="41.3,83.7 41.3,84.8 41.5,86.1 41.5,86.9 41.6,87.4 41.9,87.9 42.2,88.3 42.6,88.5 43.1,88.7 
		43.7,88.7 44.3,88.4 44.7,88 44.9,87.6 45,87.1 45.1,86.7 45.1,86.4 45,86.1 44.6,85.1 44.2,83.4 43.9,82.2 43.8,81.6 43.4,80.2 
		43,78.7 42.6,77.7 42.5,77.4 42.2,77.3 41.9,77.7 41.7,78.3 41.6,78.8 41.5,79.1 41.4,80 41.2,80.9 41.2,82.4 	"/>
	<polygon class="st1" points="37.9,106.4 38.2,106 38.4,105.7 38.5,105.3 38.4,104.5 38,104 37.1,102.2 36.6,100.6 35.9,98.4 
		35.5,97.1 35.2,96.3 35.1,96 34.8,96.1 34.6,96.4 34.4,97.2 34.3,98 34.2,99.1 34.1,100.4 34.1,101.2 34.2,102.1 34.3,103.2 
		34.6,104.3 34.8,105.4 35.1,105.8 35.3,106.3 35.6,106.8 36,107 36.6,107.1 37.1,107 37.3,106.8 	"/>
	<path class="st1" d="M48.2,117.9l0.6-0.2l0.5-0.3l0.3-0.3l0.3-0.5l0.3-0.5l0.1-0.6l0-0.4l-0.2-0.5l-0.3-0.3l-0.6-0.7l-0.4-0.1
		l-1.6-0.9l-2.1-1.2l-1.7-1l-1.6-1.2l-1.7-1.2l-1.1-0.5c-0.3,0-0.6-0.1-0.9,0.3l-0.4,0.3l-0.4,0.5l0,0.9l0.1,0.6l0.4,0.8l0.4,0.9
		l0.5,0.7l0.9,0.8l0.9,0.7l0.8,0.8l0.7,0.5l0.9,0.5l1.3,0.8l1.3,0.7l1.2,0.4l0.6,0.1L48.2,117.9z"/>
	<path class="st1" d="M54.9,136.9c-0.4-0.8-0.8-0.8-1.2-1.1c-0.8-0.5-1.3-0.2-1.8-0.2c-1.1,0.6-1.3,1.1-1.8,1.6l-1.9,4.9l-0.7,2.9
		l-0.3,3.3l0.6,1.9l1.3,0.9l1.2-0.3l0.7-0.9l1.4-3.8l1-2.4l1.6-3.5c0.3-0.4,0.6-0.6,0.5-1.7C55.2,137.4,55.2,137.3,54.9,136.9z"/>
	<polygon class="st1" points="54,160.3 53.6,159 52.9,157.4 52.4,156.1 52.1,154.8 51.9,154 51.6,153.3 51.5,152.9 51.2,152.3 
		50.6,152 49.8,152 49.3,152.1 48.9,152.3 48.4,152.9 48.3,153.7 48.5,154.7 49,156.1 49.5,157.3 50.7,159.1 51.6,160.4 52.8,161.4 
		53.5,161.9 54.3,162.3 54.8,162.2 54.8,161.8 54.6,161.2 	"/>
	<polygon class="st1" points="80.4,158.3 79.1,158 78,157.8 76.6,157.4 75.5,157 73.9,156.6 72.4,156.1 71.6,156.1 71.1,156.4 
		70.7,156.8 70.3,157.1 70.2,157.5 70.2,158.3 70.7,159 71.5,159.5 72.8,159.8 73.8,160 75,160.1 76.1,160.2 77.3,160.2 78.1,160.2 
		79.2,160.1 80.1,159.8 80.8,159.7 81.3,159.6 81.8,159.4 82,159.1 81.5,158.6 	"/>
	<polygon class="st1" points="68.7,154.3 67.7,153 67,152 66.6,151.3 66.3,150.6 66.1,149.9 66,149.1 66,148.2 66,147.6 66.1,147 
		66.1,146.6 66.1,146.2 66,145.5 65.4,144.7 65,144.2 64.2,143.9 63.7,143.6 63.2,143.6 62.6,143.7 62.1,144 61.3,144.5 60.8,145.3 
		60.6,146 60.4,147.1 60.4,148.3 60.6,149.7 60.8,151 61.1,152.2 61.7,153.5 62.6,154.7 63.7,156.1 65,156.8 65.9,157.4 67.1,157.7 
		68,157.8 68.7,157.6 69,157.2 69.3,156.7 69.5,156.1 69.3,155.2 	"/>
	<path class="st1" d="M119.6,63l5.2,5.6l4.8,3.8l3.4,1.9l-0.8,4.7l0,4.9l0.9,3l1.3,2l-7,5.4l1.4,4l1.6,4.4l0.6,0.9h0.1l1.6,2h0
		c0.2-0.5,0.2-0.3,0.7-0.2l0.8-0.8l1.3-1.4l1.4-1.7l2.1-2.7l2.1-3.9l0.9-1.7l1.4-2.5l1.2-0.9l1.4-1.3l1.2-2.1l1.1-3.5l0.9-3.4
		l0.6-5.3l-0.1-3.6l-0.6-4.6l-1.9-6.8l-2.4-5.1l-2.4-3.4l-2.6-3.3l-3.1-3.1l-2.1-1.6l-4.3-2.7l-2.9-2.1l2.6,6.1l2.6,6.8l1.6,8.5
		l0.1,4.1l-2-1.1l-2.9-1.9l-3.1-2.5l-2.6-2.8l-2.9-3.4l-2.3-3.7l-1.6-3l-0.5,2.2c-0.5,2.1-0.4,3.1-0.6,4.6l1.1,5.7L119.6,63z"/>
	<polygon class="st1" points="145.4,135.5 146.1,134.8 146.6,133.7 146.4,132.3 145.9,131.1 144.9,129.7 143.6,128.2 142.5,127.1 
		141.3,126.2 139,124.6 136.5,123.5 135.2,123.1 134.4,122.8 134.9,122.9 136.9,123.1 138.8,123.2 141,123.2 143,123.2 144.5,123 
		146.2,122.6 147.5,122.1 148.6,121.4 149.2,120.5 149.3,119.5 148.9,118.3 148.5,117.2 147.8,116.5 146.8,116 144.8,115.6 
		141.9,115.3 138.4,114.8 135.3,114.4 138.6,113 140.2,112.3 141.7,111.5 143.5,110.6 145,109.5 145.9,108.7 146.8,107.9 
		147.5,106.9 147.7,106.1 147.7,105.4 147.4,104.8 146.9,104.4 146,103.6 145.5,103.1 144.8,102.9 144,102.7 142.8,102.9 
		141.3,103.3 138.6,104 136,104.8 132.6,105.9 132.8,106.2 133.2,107.1 133.8,108.4 133.9,109.3 133.9,109.5 134,109.7 134.1,110.6 
		134.2,114.3 134,117.1 133.2,122.9 133.1,124.1 132.2,128 131.5,130.1 130.2,133.2 129.5,134.3 128.6,135.5 127.7,136.5 
		126.4,137.6 125.5,138.3 125.8,138.5 127.3,139.1 129.6,140.5 130.8,141.3 132,142.6 133,143.3 134.1,143.7 134.9,143.4 
		135.5,143.1 135.9,143.1 136.6,142.8 137.5,142.1 137.7,140.9 137.8,139.9 137.6,139.1 137.1,137.8 136.3,136.3 135.5,134.9 
		134.8,134 133.4,132.7 132.6,132 131.7,131.5 132.2,131.7 133.5,132 135.3,132.7 136.5,133.2 137.5,133.8 138.9,134.7 140.2,135.5 
		141.2,136 142.4,136.4 143.2,136.6 144.1,136.4 144.8,136 	"/>
	<polygon class="st1" points="147.4,99.4 147,101 147.1,101.9 147.5,102.9 148.2,103.6 148.9,104 149.7,104 150.3,103.9 
		150.9,103.6 151.4,103.3 151.9,102.7 152.7,101.6 153.5,100.7 154.3,99.3 155,98.1 155.3,97.3 155.6,96.8 155.9,96.1 156.1,95.4 
		156.6,94.1 156.8,92.9 157,92 156.8,91.2 156.2,90.6 155.4,90.2 154.5,90.4 154,90.8 153.2,91.6 152.5,92.6 151.3,94.3 149.7,96.7 
		148.2,98.6 	"/>
	<polygon class="st1" points="155,87.9 155.1,88.3 155.3,88.8 155.7,89.2 156.3,89.4 156.9,89.5 157.4,89.3 157.8,89.1 158.1,88.6 
		158.4,88.2 158.5,87.7 158.5,86.9 158.7,85.6 158.7,84.5 158.8,83.2 158.8,81.6 158.6,80.8 158.5,79.9 158.4,79.6 158.3,79.1 
		158.1,78.4 157.8,78.1 157.5,78.2 157.4,78.5 157,79.4 156.6,81 156.2,82.4 156.1,83 155.8,84.1 155.4,85.9 155,86.9 154.9,87.1 
		154.9,87.5 	"/>
	<polygon class="st1" points="165.8,99.8 165.7,98.7 165.6,98 165.4,97.1 165.2,96.9 164.9,96.8 164.8,97.1 164.5,97.8 164.1,99.1 
		163.4,101.3 162.9,102.9 162,104.7 161.6,105.2 161.5,106 161.6,106.5 161.8,106.8 162.1,107.2 162.7,107.6 162.9,107.7 
		163.4,107.9 164,107.8 164.4,107.5 164.7,107.1 164.9,106.5 165.2,106.2 165.4,105.1 165.7,103.9 165.8,102.9 165.9,102 
		165.9,101.1 	"/>
	<path class="st1" d="M162.3,109.1l-0.4-0.3c-0.3-0.4-0.6-0.4-0.9-0.3l-1.1,0.5l-1.7,1.2l-1.6,1.2l-1.7,1l-2.1,1.2l-1.6,0.9
		l-0.4,0.1l-0.6,0.7l-0.3,0.3l-0.2,0.5l0,0.4l0.1,0.6l0.3,0.5l0.3,0.5l0.3,0.3l0.5,0.3l0.6,0.2l0.8,0l0.6-0.1l1.2-0.4l1.3-0.7
		l1.3-0.8l0.9-0.5l0.7-0.5l0.8-0.8l0.9-0.7l0.9-0.8l0.5-0.7l0.4-0.9l0.4-0.8l0.1-0.6l0-0.9L162.3,109.1z"/>
	<path class="st1" d="M151.9,142.7l-1.9-4.9c-0.5-0.5-0.7-0.9-1.8-1.6c-0.6,0-1-0.4-1.8,0.2c-0.4,0.3-0.8,0.3-1.2,1.1
		c-0.3,0.5-0.3,0.6-0.5,1.4c-0.1,1,0.3,1.2,0.5,1.7l1.6,3.5l1,2.4l1.4,3.8l0.7,0.9l1.2,0.3l1.3-0.9l0.6-1.9l-0.3-3.3L151.9,142.7z"
		/>
	<polygon class="st1" points="151.1,153 150.7,152.8 150.2,152.7 149.4,152.8 148.8,153 148.5,153.7 148.4,154.1 148.1,154.8 
		147.9,155.6 147.6,156.9 147.1,158.2 146.4,159.8 146,161 145.4,162 145.2,162.5 145.2,163 145.7,163 146.5,162.6 147.2,162.1 
		148.4,161.1 149.3,159.9 150.5,158 151,156.9 151.5,155.5 151.7,154.4 151.6,153.7 	"/>
	<polygon class="st1" points="129.3,157.5 128.9,157.2 128.4,156.9 127.6,156.9 126.1,157.3 124.5,157.8 123.4,158.1 122,158.5 
		120.9,158.8 119.6,159.1 118.5,159.4 118,159.9 118.2,160.1 118.7,160.4 119.2,160.5 119.9,160.6 120.8,160.8 121.9,160.9 
		122.7,161 123.9,161 125,160.9 126.2,160.7 127.2,160.5 128.5,160.3 129.3,159.7 129.8,159.1 129.8,158.2 129.7,157.9 	"/>
	<polygon class="st1" points="139.2,146.1 138.7,145.3 137.9,144.8 137.4,144.5 136.8,144.4 136.3,144.4 135.8,144.7 135,145 
		134.6,145.5 134,146.3 133.9,146.9 133.9,147.3 133.9,147.7 134,148.4 134,149 134,149.8 133.9,150.7 133.7,151.4 133.4,152.1 
		133,152.8 132.3,153.8 131.3,155.1 130.7,155.9 130.5,156.9 130.7,157.4 131,158 131.3,158.4 132,158.6 132.9,158.5 134.1,158.2 
		135,157.6 136.3,156.9 137.4,155.4 138.3,154.3 138.9,152.9 139.2,151.7 139.4,150.5 139.6,149 139.6,147.8 139.4,146.7 	"/>
</g>
</svg>
