<?xml version="1.0" encoding="utf-8"?>
<!-- Generator: Adobe Illustrator 25.0.1, SVG Export Plug-In . SVG Version: 6.00 Build 0)  -->
<svg version="1.1"
	 id="svg4209" inkscape:version="0.48.5 r10040" sodipodi:docname="IconoAlergenoPescado-Fish.svg" xmlns:cc="http://creativecommons.org/ns#" xmlns:dc="http://purl.org/dc/elements/1.1/" xmlns:inkscape="http://www.inkscape.org/namespaces/inkscape" xmlns:rdf="http://www.w3.org/1999/02/22-rdf-syntax-ns#" xmlns:sodipodi="http://sodipodi.sourceforge.net/DTD/sodipodi-0.dtd" xmlns:svg="http://www.w3.org/2000/svg"
	 xmlns="http://www.w3.org/2000/svg" xmlns:xlink="http://www.w3.org/1999/xlink" x="0px" y="0px" viewBox="0 0 200 200"
	 style="enable-background:new 0 0 200 200;" xml:space="preserve">
<style type="text/css">
	.st0{fill:#7F7F7F;stroke:#C3EAD8;stroke-width:0.2788;stroke-miterlimit:22.3065;}
	.st1{fill:#FFFFFF;stroke:#FFFFFF;stroke-width:0.2788;stroke-linecap:round;stroke-linejoin:round;stroke-miterlimit:22.3065;}
</style>
<sodipodi:namedview  bordercolor="#666666" borderopacity="1.0" id="base" inkscape:current-layer="layer1" inkscape:cx="487.44456" inkscape:cy="621.26637" inkscape:document-units="px" inkscape:pageopacity="0.0" inkscape:pageshadow="2" inkscape:window-height="924" inkscape:window-maximized="1" inkscape:window-width="1280" inkscape:window-x="0" inkscape:window-y="28" inkscape:zoom="0.32234025" pagecolor="#ffffff" showgrid="false">
	</sodipodi:namedview>
<circle class="st0" cx="100" cy="100" r="94.5"/>
<sodipodi:namedview  bordercolor="#666666" borderopacity="1.0" id="base" inkscape:current-layer="layer1" inkscape:cx="751.07539" inkscape:cy="884.34989" inkscape:document-units="px" inkscape:pageopacity="0.0" inkscape:pageshadow="2" inkscape:window-height="924" inkscape:window-maximized="1" inkscape:window-width="1280" inkscape:window-x="0" inkscape:window-y="28" inkscape:zoom="0.20031052" pagecolor="#ffffff" showgrid="false">
	</sodipodi:namedview>
<g id="layer1" transform="translate(0,-680.31494)" inkscape:groupmode="layer" inkscape:label="Capa 1">
	<g id="g4979" transform="matrix(5.5766334,0,0,5.5766334,-1073.8786,-1027.3502)">
		<g id="g4972">
			<g id="g4264" transform="translate(-72.470092,306.21785)">
				<path id="path4240" inkscape:connector-curvature="0" class="st1" d="M283.8,8.2l1.7-0.6l1.3-0.3l0.8,0l0.6,0.2l0.5,0.5l0.1,0.6
					L288.7,9l-0.4,0.4l-0.7,0.4l-0.5,0.3l-0.3,0.4l-0.2,0.9l-0.2,0.7l0.2,1.1l0.6,0.7l0.8,1.1l0.8,1.8L289,18l0.3,2.1l0.1,1.5
					l-0.1,1.4l-0.3,1.5l-0.5,1.1l-0.5,0.9l-0.6,1l-0.6,0.6l-0.7,0.4l-1.3,0.2l-3.5-0.1l-1.1-0.1l-0.5-0.1l-0.4-0.3l-0.6-0.6
					l-1.2-1.8l-0.5-1.3l-0.3-1.1l-0.1-1.1l0-0.5l-0.4-0.6l-0.6-1l-0.5-1l-0.5-1.6l-0.2-0.9l0.1-1.3l0.2-1.2l0.5-1l0.9-1l1-0.5l1-0.4
					l-0.4-0.9l-0.1-0.6L278,9l0.6-0.4l1.1-0.3l1.2-0.2h0.9h0.9l0.5,0.1l-0.1,0.1l-0.5,0.1h-0.6l-0.7,0.1l-1,0.1l-0.8,0.3L279,9
					l0.1,0.3l0.5,0.1l0.8,0.1l0.3,0l0.7-0.3l1.2-0.5l0.9-0.4L283.8,8.2z"/>
				<path id="path4253" inkscape:connector-curvature="0" class="st0" d="M276.8,19.5l0.2-1.2l0.4-1.4l0.5-1.2l0.4-0.8l0.4-0.6
					l0.1-0.2l0.2-0.5l0-0.8l-0.1-0.5l-0.1-0.1l-0.2-0.1l-0.1,0.1l-0.7,0.4l-0.5,0.4l-0.7,0.8l-0.4,0.7l-0.3,0.8l-0.1,0.9l0.1,0.8
					l0.2,0.8l0.2,0.7l0.3,0.5L276.8,19.5z"/>
				<path id="path4255" inkscape:connector-curvature="0" class="st0" d="M280.1,11.1l0.3-0.1l0.4,0l0.2,0.1l0.1,0.3l0.1,0.4v0.8
					l0,0.7l-0.1,0.7l-0.2,0.6l-0.1,0.3l-0.2,0.4l-0.2,0.4l-0.4,0.6l-0.3,0.6l-0.4,1l-0.3,0.9l-0.2,0.5l-0.2,0.4l-0.2,0.1l-0.1,0
					l-0.1-0.1l-0.1-0.3l0.2-1.2l0.3-0.9l0.4-1.2l0.4-0.8l0.4-0.7l0.3-0.6l0.1-0.5l-0.1-1l-0.1-0.7l0-0.3L280.1,11.1z"/>
			</g>
		</g>
	</g>
</g>
</svg>
