<?xml version="1.0" encoding="utf-8"?>
<!-- Generator: Adobe Illustrator 25.0.1, SVG Export Plug-In . SVG Version: 6.00 Build 0)  -->
<svg version="1.1"
	 id="svg4209" inkscape:version="0.48.5 r10040" sodipodi:docname="IconoAlergenoPescado-Fish.svg" xmlns:cc="http://creativecommons.org/ns#" xmlns:dc="http://purl.org/dc/elements/1.1/" xmlns:inkscape="http://www.inkscape.org/namespaces/inkscape" xmlns:rdf="http://www.w3.org/1999/02/22-rdf-syntax-ns#" xmlns:sodipodi="http://sodipodi.sourceforge.net/DTD/sodipodi-0.dtd" xmlns:svg="http://www.w3.org/2000/svg"
	 xmlns="http://www.w3.org/2000/svg" xmlns:xlink="http://www.w3.org/1999/xlink" x="0px" y="0px" viewBox="0 0 200 200"
	 style="enable-background:new 0 0 200 200;" xml:space="preserve">
<style type="text/css">
	.st0{fill:#7F7F7F;stroke:#C3EAD8;stroke-width:0.2788;stroke-miterlimit:22.3065;}
	.st1{fill:#FFFFFF;}
</style>
<sodipodi:namedview  bordercolor="#666666" borderopacity="1.0" id="base" inkscape:current-layer="layer1" inkscape:cx="487.44456" inkscape:cy="621.26637" inkscape:document-units="px" inkscape:pageopacity="0.0" inkscape:pageshadow="2" inkscape:window-height="924" inkscape:window-maximized="1" inkscape:window-width="1280" inkscape:window-x="0" inkscape:window-y="28" inkscape:zoom="0.32234025" pagecolor="#ffffff" showgrid="false">
	</sodipodi:namedview>
<circle class="st0" cx="100" cy="100" r="94.5"/>
<g>
	
		<path id="path4134" inkscape:connector-curvature="0" sodipodi:nodetypes="ccccccccccccccccccccccccccccccccccccccccccccccccccccccccccc" class="st1" d="
		M31.1,108.1l6-2.8l-7-5.7c0.9-1.5,1.8-3.1,3.1-4.6c2.7-3.1,4.8-6.3,8.5-9.4c2.9-2.3,5.8-4.7,9.3-6.4c2.7-1.4,5.6-2.5,8.6-3.5
		c4.3-1.2,9.3-2.3,15.3-3.4c2.2-0.7,4.7-1.1,6.6-2.2l3.7-4.6c2.1-1.8,4.1-3.6,6.7-5.3c2.3-1,3.8-2.3,8.3-2.7
		c1.7-0.3,3.3-0.1,4.9,0.5c1,0.5,1.9,1.2,2,2.4c-0.2,1.4-0.7,2.9-1.5,4.3l-4,6.8c-0.4,1-1.2,1.6-1.2,3c3.5,1.1,7,2.1,10.5,3.5
		c3.3,1,5.9,2.4,8.7,3.7c3.3,1.3,5.4,2.5,7.7,3.8c3.7,2.2,6.8,4.3,9.9,6.5l3.8,3.2c1.7-2.4,2.9-4.4,6.7-7.3c2.5-1.7,4.8-3.5,8.4-4.8
		c2.9-0.7,5.4-1.6,9.3-1.6c1.5,0.1,4.2,0.1,4.6,1.2l-4.1,3.3c-1.7,1.4-3.4,3.4-5.1,5.3c-1.9,3-2.9,5-3.6,6.7
		c-0.5,1.8-1.1,3.7-0.9,5.5c0,2,1.5,4.5,2.4,6.9l5.1,6.2l6.1,5.3c-1.1,1.7-0.9,1.3-3.7,2.7c-2.1,0.6-4.3,0.5-6.4,0.2l-5.3-1.9
		c-2-1.5-4.5-2.9-5.7-4.4l-5.1-5.1l-2.9-3.6c-1.1,1.7-2.4,3.2-4,4.6c-2.2,1.9-4.5,3.4-6.9,5l-5.5,2.8l-6.1,2.7
		c-4.6,1.9-9.2,3.5-13.9,5.1l-6,1.8c-0.1,1.2,0.5,2.1,1.5,2.8l4.2,3.1l3.4,3c-1.1,0.9-2.7,1.3-4.2,1.8c-1.3,0.4-3.1,0.2-4.9,0.1
		c-2.7-0.8-4.9-2-6.7-3.5l-2.8-2.6l-2.6-3.4c-1.7-0.7-3.4-1.2-5.1-1.4l-10.8-1.3c-5.1-0.4-10.2-1.1-15.5-2.7
		c-4-1.5-7.8-3.4-11.4-5.9c-2.9-2.5-5.6-4.9-7.6-7.2L31.1,108.1z"/>
	
		<path id="path4140" sodipodi:cx="148.47491" sodipodi:cy="30.271761" sodipodi:rx="0.83706784" sodipodi:ry="0.83706784" sodipodi:type="arc" class="st0" d="
		M65.6,93.9c0,3-2.5,5.5-5.5,5.5c-3,0-5.5-2.5-5.5-5.5c0-3,2.5-5.5,5.5-5.5C63.2,88.3,65.6,90.8,65.6,93.9z"/>
	<path id="path4142" inkscape:connector-curvature="0" sodipodi:nodetypes="cccccccccccccccccccccccccccc" class="st0" d="
		M70.6,126.2l3.2-2.9l4-4.9l2.8-5.5c0.8-1.7,1.5-3.7,1.8-5.8l0.5-4.7c0-2-0.1-4.1-0.5-6.4c-0.4-2.4-1-4.8-2-7.4l-2.8-5.8l-3.3-5.1
		l-1-1.6l2.4,2l3.8,4l1.8,2.4l2.6,4.7l1.3,3.8l0.9,2.9l0.5,2.8l0.1,3.7l-0.2,3.6l-0.9,3.7l-1,3.3l-1.9,3.1l-1.6,2.1l-2.2,2.4
		l-3.4,2.6l-3.4,2.3L70.6,126.2z"/>
</g>
</svg>
