<?xml version="1.0" encoding="utf-8"?>
<!-- Generator: Adobe Illustrator 25.0.1, SVG Export Plug-In . SVG Version: 6.00 Build 0)  -->
<svg version="1.1"
	 id="svg4209" inkscape:version="0.48.5 r10040" sodipodi:docname="IconoAlergenoPescado-Fish.svg" xmlns:cc="http://creativecommons.org/ns#" xmlns:dc="http://purl.org/dc/elements/1.1/" xmlns:inkscape="http://www.inkscape.org/namespaces/inkscape" xmlns:rdf="http://www.w3.org/1999/02/22-rdf-syntax-ns#" xmlns:sodipodi="http://sodipodi.sourceforge.net/DTD/sodipodi-0.dtd" xmlns:svg="http://www.w3.org/2000/svg"
	 xmlns="http://www.w3.org/2000/svg" xmlns:xlink="http://www.w3.org/1999/xlink" x="0px" y="0px" viewBox="0 0 200 200"
	 style="enable-background:new 0 0 200 200;" xml:space="preserve">
<style type="text/css">
	.st0{fill:#7F7F7F;stroke:#C3EAD8;stroke-width:0.2788;stroke-miterlimit:22.3065;}
	.st1{fill:#FFFFFF;stroke:#FFFFFF;stroke-width:0.2788;stroke-linecap:round;stroke-linejoin:round;stroke-miterlimit:22.3065;}
	.st2{fill:#FFFFFF;stroke:#FFFFFF;stroke-width:0.2364;stroke-linecap:round;stroke-linejoin:round;stroke-miterlimit:22.3065;}
	.st3{fill:#FFFFFF;stroke:#FFFFFF;stroke-width:0.199;stroke-linecap:round;stroke-linejoin:round;stroke-miterlimit:22.3065;}
	.st4{fill:#FFFFFF;stroke:#FFFFFF;stroke-width:0.1493;stroke-linecap:round;stroke-linejoin:round;stroke-miterlimit:22.3065;}
	.st5{fill:#FFFFFF;stroke:#FFFFFF;stroke-width:0.2227;stroke-linecap:round;stroke-linejoin:round;stroke-miterlimit:22.3065;}
</style>
<sodipodi:namedview  bordercolor="#666666" borderopacity="1.0" id="base" inkscape:current-layer="layer1" inkscape:cx="487.44456" inkscape:cy="621.26637" inkscape:document-units="px" inkscape:pageopacity="0.0" inkscape:pageshadow="2" inkscape:window-height="924" inkscape:window-maximized="1" inkscape:window-width="1280" inkscape:window-x="0" inkscape:window-y="28" inkscape:zoom="0.32234025" pagecolor="#ffffff" showgrid="false">
	</sodipodi:namedview>
<circle class="st0" cx="100" cy="100" r="94.5"/>
<sodipodi:namedview  bordercolor="#666666" borderopacity="1.0" id="base" inkscape:current-layer="layer1" inkscape:cx="751.07539" inkscape:cy="884.34989" inkscape:document-units="px" inkscape:pageopacity="0.0" inkscape:pageshadow="2" inkscape:window-height="924" inkscape:window-maximized="1" inkscape:window-width="1280" inkscape:window-x="0" inkscape:window-y="28" inkscape:zoom="0.20031052" pagecolor="#ffffff" showgrid="false">
	</sodipodi:namedview>
<g id="layer1" transform="translate(0,-680.31494)" inkscape:groupmode="layer" inkscape:label="Capa 1">
	<g id="g3161" transform="matrix(5.5766335,0,0,5.5766335,-1112.9951,-1035.2445)">
		<g id="g3152">
			<g id="g3141" transform="translate(1.8080426,0)">
				
					<path id="path4248" inkscape:connector-curvature="0" sodipodi:nodetypes="ccccccccccccccccccccccccccccccccccc" class="st1" d="
					M217.9,326.5l0.2-0.3l0.4-0.4l0.5-0.4l0.8-0.6l0.7-0.5l0.6-0.4l0.7-0.4l0.9-0.4l0.9-0.3l0.4-0.1l0.3,0l0.2,0.1
					c-1.4,1.6-2.9,3.1-4.4,4.7c0.1,0.1,0,0.3,0.3,0.2c1.5-1.5,3-3.1,4.4-4.7l0,0.4c0,0.2,0,0.5-0.1,0.8l-0.2,1l-0.4,0.9l-0.9,2
					l-0.5,1l-0.4,0.6l-0.4,0.5l-0.5,0.5l-0.6,0.5l-0.9,0.3c-0.3,0.1-0.6,0.2-1,0.1l-0.7-0.2l-0.6-0.3c-0.2-0.2-0.4-0.5-0.6-0.8
					c-0.2-0.4-0.2-0.7-0.2-1l0-0.9c0.2-0.5,0.4-1.1,0.6-1.3L217.9,326.5z"/>
				
					<path id="path4248-0" inkscape:connector-curvature="0" sodipodi:nodetypes="ccccccccccccccccccccccccccccccccccc" class="st2" d="
					M212.4,328.2l-0.2,0.2l-0.3,0.3l-0.5,0.3l-0.7,0.5l-0.6,0.4l-0.5,0.3l-0.5,0.3l-0.7,0.3l-0.8,0.2l-0.4,0l-0.3,0l-0.1-0.1
					c1.2-1.3,2.5-2.7,3.8-3.9c0-0.1,0-0.3-0.2-0.2c-1.3,1.3-2.5,2.6-3.7,3.9l0-0.4c0-0.2,0-0.4,0.1-0.7l0.2-0.9l0.3-0.8l0.8-1.7
					l0.5-0.8l0.3-0.5l0.3-0.4l0.5-0.4l0.5-0.4l0.8-0.3c0.3-0.1,0.5-0.1,0.8-0.1l0.6,0.2l0.5,0.3c0.2,0.2,0.3,0.5,0.5,0.7
					c0.1,0.3,0.2,0.6,0.2,0.8l-0.1,0.8c-0.1,0.4-0.4,0.9-0.5,1.1L212.4,328.2z"/>
				
					<path id="path4248-5" inkscape:connector-curvature="0" sodipodi:nodetypes="ccccccccccccccccccccccccccccccccccc" class="st3" d="
					M214.7,321.4l-0.1-0.3l-0.1-0.4l-0.1-0.5l-0.1-0.8l-0.1-0.6l0-0.6l0-0.6l0-0.7l0.1-0.7l0.1-0.3l0.1-0.2l0.1-0.1
					c0.5,1.5,1,3,1.5,4.6c0.1,0,0.2,0.1,0.2-0.1c-0.5-1.5-1-3.1-1.5-4.6l0.3,0.1c0.1,0.1,0.3,0.2,0.4,0.3l0.5,0.5l0.4,0.6l0.9,1.3
					l0.4,0.7l0.2,0.5l0.2,0.4l0.1,0.5l0.1,0.6l-0.1,0.7c0,0.3-0.1,0.5-0.2,0.7l-0.3,0.4l-0.4,0.3c-0.2,0.1-0.4,0.1-0.7,0.2
					c-0.3,0-0.5-0.1-0.6-0.2l-0.5-0.3c-0.2-0.3-0.5-0.7-0.6-0.9L214.7,321.4z"/>
				
					<path id="path4248-1" inkscape:connector-curvature="0" sodipodi:nodetypes="ccccccccccccccccccccccccccccccccccc" class="st4" d="
					M217.2,314.7l-0.2-0.1l-0.2-0.2l-0.3-0.3l-0.4-0.4l-0.3-0.3l-0.3-0.3l-0.3-0.3l-0.3-0.5l-0.3-0.5l-0.1-0.2l0-0.2l0-0.1
					c0.9,0.6,1.8,1.3,2.8,2c0,0,0.2,0,0.1-0.2c-0.9-0.7-1.8-1.3-2.7-1.9l0.2-0.1c0.1,0,0.2,0,0.4-0.1l0.5,0l0.5,0.1l1,0.3l0.5,0.2
					l0.3,0.1l0.3,0.2l0.3,0.3l0.3,0.3l0.3,0.5c0.1,0.2,0.2,0.4,0.2,0.6l0,0.5l-0.1,0.4c-0.1,0.2-0.2,0.3-0.3,0.5
					c-0.1,0.1-0.3,0.2-0.4,0.3l-0.4,0.1c-0.2,0-0.6-0.1-0.7-0.2L217.2,314.7z"/>
				
					<path id="path4248-19" inkscape:connector-curvature="0" sodipodi:nodetypes="ccccccccccccccccccccccccccccccccccc" class="st5" d="
					M214.6,338.5l-0.2-0.2l-0.2-0.4l-0.2-0.5l-0.3-0.8l-0.2-0.6l-0.1-0.5l-0.1-0.6l-0.1-0.7l0-0.7l0.1-0.3l0.1-0.2l0.1-0.1
					c0.9,1.4,1.7,2.8,2.6,4.3c0.1,0,0.3,0.1,0.3-0.1c-0.8-1.5-1.7-2.9-2.6-4.3l0.3,0.1c0.2,0.1,0.4,0.2,0.6,0.3l0.8,0.4l0.6,0.5
					l1.3,1.2l0.6,0.6l0.4,0.4l0.3,0.4l0.2,0.5l0.2,0.6l0,0.7c0,0.3,0,0.5-0.2,0.7l-0.4,0.5l-0.4,0.3c-0.3,0.1-0.5,0.2-0.8,0.3
					c-0.3,0-0.6,0-0.8-0.1l-0.7-0.3c-0.3-0.2-0.7-0.6-0.9-0.8L214.6,338.5z"/>
			</g>
		</g>
	</g>
</g>
</svg>
