<?xml version="1.0" encoding="utf-8"?>
<!-- Generator: Adobe Illustrator 25.0.1, SVG Export Plug-In . SVG Version: 6.00 Build 0)  -->
<svg version="1.1"
	 id="svg4209" inkscape:version="0.48.5 r10040" sodipodi:docname="IconoAlergenoPescado-Fish.svg" xmlns:cc="http://creativecommons.org/ns#" xmlns:dc="http://purl.org/dc/elements/1.1/" xmlns:inkscape="http://www.inkscape.org/namespaces/inkscape" xmlns:rdf="http://www.w3.org/1999/02/22-rdf-syntax-ns#" xmlns:sodipodi="http://sodipodi.sourceforge.net/DTD/sodipodi-0.dtd" xmlns:svg="http://www.w3.org/2000/svg"
	 xmlns="http://www.w3.org/2000/svg" xmlns:xlink="http://www.w3.org/1999/xlink" x="0px" y="0px" viewBox="0 0 200 200"
	 style="enable-background:new 0 0 200 200;" xml:space="preserve">
<style type="text/css">
	.st0{fill:#7F7F7F;stroke:#C3EAD8;stroke-width:0.2788;stroke-miterlimit:22.3065;}
	.st1{fill:#FEFEFE;stroke:#FEFEFE;stroke-width:0.2788;stroke-linecap:round;stroke-linejoin:round;stroke-miterlimit:22.3065;}
	
		.st2{fill:#FFFFFF;stroke:#FFFFFF;stroke-width:0.2788;stroke-linecap:round;stroke-linejoin:round;stroke-miterlimit:22.3065;stroke-opacity:0.9412;}
</style>
<sodipodi:namedview  bordercolor="#666666" borderopacity="1.0" id="base" inkscape:current-layer="layer1" inkscape:cx="487.44456" inkscape:cy="621.26637" inkscape:document-units="px" inkscape:pageopacity="0.0" inkscape:pageshadow="2" inkscape:window-height="924" inkscape:window-maximized="1" inkscape:window-width="1280" inkscape:window-x="0" inkscape:window-y="28" inkscape:zoom="0.32234025" pagecolor="#ffffff" showgrid="false">
	</sodipodi:namedview>
<circle class="st0" cx="100" cy="100" r="94.5"/>
<sodipodi:namedview  bordercolor="#666666" borderopacity="1.0" id="base" inkscape:current-layer="layer1" inkscape:cx="751.07539" inkscape:cy="884.34989" inkscape:document-units="px" inkscape:pageopacity="0.0" inkscape:pageshadow="2" inkscape:window-height="924" inkscape:window-maximized="1" inkscape:window-width="1280" inkscape:window-x="0" inkscape:window-y="28" inkscape:zoom="0.20031052" pagecolor="#ffffff" showgrid="false">
	</sodipodi:namedview>
<g>
	
		<path id="path4005" inkscape:connector-curvature="0" sodipodi:nodetypes="cccccccccccccccccccccccccccccccccccccccccccccccccc" class="st1" d="
		M45,139.2l3.5,2.5l3.5,1.6l4.4,1.3l3.7,0.9l5.8,0.9l3.8,0.6l3.5,0.1l4.4-0.2l6.8-1.2l5.5-0.9l4.5-1.1l8.1-2l4.5-1.3l6.6-2.2
		l5.2-1.6c1.7-0.6,3.2-0.8,4.7-1.2c1.6-0.4,3.4-0.5,5.2-0.6c2.5,0,4.5,0.1,6.7,0.6c1.4,0.3,2.9,0.8,4.3,1.4c1.4,0.8,2.9,1.5,4.3,2.6
		c1.4,0.9,2.4,1.9,3.6,3l4.2,4.3c1.4,1.8,3.1,3.5,4.2,5.4l1.5,1.6c0.2,0,0.3-0.1,0.4-0.5c0.5,0.4,0.7,0.9,1,1.4c-0.5,0-1,0-1.4,0.1
		l-1.7-0.4l-3.4-0.6l-5,0l-5,0.3l-6.6,1.2c-2.4,0.5-4.8,1.4-7.2,2.1l-12,4.1c-5,2.1-10.5,3.7-15.7,5.5l-7.6,1.4l-7,1.3l-5.1,0.6
		l-8.3,0.1l-6.6-0.9c-1.8-0.5-3.6-1.1-5.4-2c-2.5-1-4.3-2.5-6.2-4c-2.1-2.2-4.3-4.4-5.3-6.9l-1.7-3.4l-1.5-4.5l-0.5-2.8l-0.2-3.4
		l-0.1-1.1L45,139.2z"/>
	<path id="path4011" inkscape:connector-curvature="0" sodipodi:nodetypes="ccccccccccccccccccccccccccccccc" class="st0" d="
		M54.1,156.4l-0.3-1.4l-0.1-0.7l0.3-1.5l0.6-1.9l0.6-0.9l1-0.7l1.3-0.7l1.4-0.3l1.3,0l1.9,0.4l1.8,0.8l1.9,1.1l1.7,1.5l1.3,2
		l1.4,2.6l0.4,2.5l0,1.9l-0.9,2.3c-0.2,0.3-0.4,0.5-0.7,0.7l-0.3-0.1l-1.2,0.9l-1,0.6l-3.3,0l-2.4-0.7l-2-1.2l-1.8-1.5l-1.4-1.6
		l-0.9-1.7l-0.4-1L54.1,156.4z"/>
	<path id="path4011-1" inkscape:connector-curvature="0" sodipodi:nodetypes="ccccccccccccccccccccccccccccccc" class="st0" d="
		M71.9,157.7l-0.3-0.9c-0.1-0.4-0.3-0.7-0.1-1.2l0-1.8c0-0.8,0.4-1.7,0.7-2.4c0.2-0.4,0.7-0.8,1.2-1.1l0.7-0.7
		c0.2-0.2,0.7-0.4,1.1-0.5c0.5-0.1,0.5-0.2,1.6-0.4l1.6,0l1.6,0.3c0.8,0.3,1.6,0.4,2.4,0.9l2.1,1.3l1.4,1.3l1.5,1.8
		c0.6,0.9,1.1,1.9,1.5,2.8c0.2,0.7,0.3,1.3,0.4,2c0.1,1,0.1,2.1-0.1,3c-0.1,0.9-0.5,1.6-0.9,2.3c-0.2,0.3-0.4,0.5-0.6,0.7l-0.5,0.5
		l-1.1,0.5l-1.4,0.5c-1.1,0.3-2.2,0.1-3.2,0.1l-2.4-0.8c-0.7-0.4-1.6-0.6-2.1-1.3c-0.5-0.2-1.1-1.1-1.7-1.6l-1.4-1.5l-0.8-1.3
		l-0.6-1.3L71.9,157.7z"/>
	<path id="path4011-3" inkscape:connector-curvature="0" sodipodi:nodetypes="ccccccccccccccccccccccccccccccc" class="st0" d="
		M90.5,156l-0.3-1.1l-0.1-1.1c-0.3-0.9,0-1.5,0-2.2l0.7-1.7l0.8-1c0.3-0.4,0.6-0.8,1-1c0.5-0.3,1.1-0.6,1.6-0.7l1.5-0.3l1.5-0.1
		c0.8,0.1,1.6,0.2,2.3,0.4c0.7,0.2,1.5,0.5,1.8,0.7c0.7,0.4,1.5,0.7,2,1.2c0.8,0.6,1.3,1.1,1.8,1.7c0.6,0.6,1.1,0.9,1.8,1.9
		c0.7,1.3,1.5,2.6,1.7,3.8c0.1,0.9,0.3,2,0.2,2.4c0,0.8-0.3,1.3-0.6,1.9c-0.4,0.8-0.8,1.6-1.4,2.2c-0.2,0.3-0.5,0.5-0.7,0.7
		l-0.4,0.3l-1.2,0.3l-1.1,0.5c-1.1,0.2-2.2,0-3.3,0l-2.4-0.7l-2-1.2l-1.8-1.5l-1.4-1.6l-0.9-1.7l-0.4-1L90.5,156z"/>
	<path id="path4011-8" inkscape:connector-curvature="0" sodipodi:nodetypes="ccccccccccccccccccccccccccccccc" class="st0" d="
		M107.3,149.5c-0.2-0.6-0.3-1.3-0.3-2l0-1.6l0.3-0.8c0.3-0.8,0.6-1.2,0.9-1.8l0.8-0.9l1-0.7l1.3-0.7l1.4-0.3l1.3,0l1.9,0.4l1.8,0.6
		l1.9,0.8l1.9,1.3l1.7,1.9c0.9,1,1.2,1.7,1.7,2.6c0.4,0.9,0.8,1.8,0.8,2.6c0.1,0.9,0.1,1.6,0.1,2.3c-0.3,0.9-0.5,1.7-1.1,2.5
		c-0.2,0.3-0.6,0.8-0.8,1l-0.8,0.6l-0.7,0.4l-2,0.5c-1.1,0.1-2.2,0.1-3.4-0.1l-2.6-0.8l-2.3-1.3c-0.8-0.4-1.2-0.9-1.6-1.4l-1.3-1.5
		l-0.9-1.4l-0.6-1L107.3,149.5z"/>
	<path id="path4011-0" inkscape:connector-curvature="0" sodipodi:nodetypes="ccccccccccccccccccccccccccccccc" class="st0" d="
		M125.4,145.1l-0.4-1.4L125,143c0-0.5,0-1,0.1-1.4c0.1-0.6,0.5-1.4,0.7-2.1l0.8-0.8l1.2-0.7c0.5-0.2,1-0.4,1.5-0.6l1.4-0.1l1.3-0.1
		l2.1,0.4c0.5,0.3,0.7,0.2,1.6,0.6c0.9,0.5,1.9,1,2.4,1.7c0.5,0.2,0.8,0.6,1.2,0.9l1.6,1.5c0.6,0.9,1,2,1.4,3
		c0.2,0.9,0.5,1.8,0.5,2.6c-0.1,0.7-0.2,1.2-0.2,1.8l-0.7,1.3c-0.2,0.3-0.9,1-1.1,1.2l-0.7,0.5l-0.7,0.3l-1.3,0.4l-2.6,0.1l-2.5-0.6
		l-2-1l-1.9-1.4l-2.1-2.1l-0.6-0.9l-0.4-1L125.4,145.1z"/>
	
		<path id="path4068" inkscape:connector-curvature="0" sodipodi:nodetypes="ccccccccccccccccccccccccccccccccccccccccccccccc" class="st2" d="
		M71.9,55.6l1.5-5.1l1.2-3.4l1.8-3.5l2-3.6l2.5-3.5l2-2.6l1.5-1.7l2.1-2.3l3.3,1.8l3.6,2.6l4.3,3.3l3.1,3.3l2.5,2.6l2.4,3.4l2.1,3
		l1.8,3.1l1.2,3l1,3.3l0.6,3.2l0.2,3.5l-0.2,3.3l-1.1,3.3l-1.2,3.3l-1.9,3.1l-1.9,2.3l-2.4,2.9l-2.4,2.4l-4.7,3.4
		c-2.3-15.2-4.2-30.4-7.4-45.6c1.2,14.5,3.3,30.2,5.1,45.6L92,88.7l-2.1-0.5L87.2,87l-3.5-1.9l-1.7-1l-1.6-1.2l-2.1-1.7l-1.7-1.8
		l-1.7-2l-1.7-2.8L71.5,70l-0.4-2l-0.5-3.8l0.4-3.4l0.5-3.3L71.9,55.6z"/>
	
		<path id="path4070" inkscape:connector-curvature="0" sodipodi:nodetypes="ccccccccccccccccccccccccccccccccccccccccc" class="st2" d="
		M93.7,103l-36.3-3.6l8,1.7l7.4,1.2l5.8,0.7l8,1.3l6.5,0.7l-1.8,2.9l-2.1,2.9l-2.7,2.8l-2.5,2l-2.9,1.9l-3.3,1.1l-2.9,0.6h-3.9
		l-3.4-0.7l-3.4-1l-4.8-2.2l-5.1-3.3l-3.8-3.2l-2.9-3.1l-3-3.7l-1.9-2.6l-1.6-2.4l2.3-2l3.7-3.3l2.5-1.9l2.5-1.6l4.9-2.4l3.4-1.6
		l3.9-0.9l4.7-0.7l3.9-0.1l3.6,0.7l3.1,0.7l3.5,2l3.2,3.2l3,3.9l2.5,4.1l1.1,3.9L93.7,103z"/>
	
		<path id="path4072" inkscape:connector-curvature="0" sodipodi:nodetypes="ccccccccccccccccccccccccccccccccccccccccccccccccc" class="st2" d="
		M100.2,101.8l0.4-3.1v-2.6l0.6-2.3l0.9-3.4l1.9-3.9l2.4-3.5l3.8-3.5l3.7-2l2.9-1.1l4.1-0.6l3.3-0.4l4.2,0.1l3.8,0.3l4.3,0.7
		l4.1,1.2l3.7,1.4l3.5,1.3l3.7,2.3l-0.6,2.5l-1.4,3.2l-2.1,5.1l-2.3,3.7l-2,2.6l-2.7,3.7l-2.4,2.8c-1,1.1-2.1,1.6-3.5,2.7l-3.4,2.2
		l-3,1.4l-3.2,1l-3.3,0.4l-3.9-0.2l-3.6-1.1l-4.4-2l-3.8-2.5l-3.3-2.6l-1.7-2.1l14.7-5.8l7.4-2.9l9-3.6l7.3-3.1l9.2-3.5l-8.9,3
		l-8.1,2.9l-6.6,2.3l-6.2,2l-7.2,2.8l-4.5,1.5L100.2,101.8z"/>
	
		<path id="path3231" inkscape:connector-curvature="0" sodipodi:nodetypes="cccccccccccccccccccccccccccccccccccccccccc" class="st2" d="
		M94.6,89.4l2.2,0.1l0.4,2.1l0.2,1.8l0.1,2.6l0.3,3.2l0.6,3.4l1.9-0.9l0.7,1.9l-2.5,1.1l0.3,2.5l0.1,2v2v2.1l-0.2,2.7l-0.3,2.2
		l-0.3,2.3l-0.6,2.7l-0.9,3.2l-0.9,2.5l-1.2,2.4l-1.7,3l-1.3,2.2l-1.6-0.7l1.2-1.7l1.5-2.7l1.6-3.5l1-3.1l0.7-2.2l0.5-2.2l0.5-2.2
		c0.3-2.1,0.4-4.6,0.5-7.4l-0.1-3.9l-0.5-1.5l0,0l-3.5-0.2l0.6-2l2.7,0.3l-0.7-3.2l-0.4-3.7l-0.1-2.3L94.6,89.4z"/>
</g>
</svg>
