<?xml version="1.0" encoding="utf-8"?>
<!-- Generator: Adobe Illustrator 25.0.1, SVG Export Plug-In . SVG Version: 6.00 Build 0)  -->
<svg version="1.1"
	 id="svg4209" inkscape:version="0.48.5 r10040" sodipodi:docname="IconoAlergenoPescado-Fish.svg" xmlns:cc="http://creativecommons.org/ns#" xmlns:dc="http://purl.org/dc/elements/1.1/" xmlns:inkscape="http://www.inkscape.org/namespaces/inkscape" xmlns:rdf="http://www.w3.org/1999/02/22-rdf-syntax-ns#" xmlns:sodipodi="http://sodipodi.sourceforge.net/DTD/sodipodi-0.dtd" xmlns:svg="http://www.w3.org/2000/svg"
	 xmlns="http://www.w3.org/2000/svg" xmlns:xlink="http://www.w3.org/1999/xlink" x="0px" y="0px" viewBox="0 0 200 200"
	 style="enable-background:new 0 0 200 200;" xml:space="preserve">
<style type="text/css">
	.st0{fill:#7F7F7F;stroke:#C3EAD8;stroke-width:0.2788;stroke-miterlimit:22.3065;}
	.st1{enable-background:new    ;}
	.st2{fill:#FFFFFF;}
	.st3{fill:#82104E;}
</style>
<sodipodi:namedview  bordercolor="#666666" borderopacity="1.0" id="base" inkscape:current-layer="layer1" inkscape:cx="487.44456" inkscape:cy="621.26637" inkscape:document-units="px" inkscape:pageopacity="0.0" inkscape:pageshadow="2" inkscape:window-height="924" inkscape:window-maximized="1" inkscape:window-width="1280" inkscape:window-x="0" inkscape:window-y="28" inkscape:zoom="0.32234025" pagecolor="#ffffff" showgrid="false">
	</sodipodi:namedview>
<circle class="st0" cx="100" cy="100" r="94.5"/>
<sodipodi:namedview  bordercolor="#666666" borderopacity="1.0" id="base" inkscape:current-layer="layer1" inkscape:cx="751.07539" inkscape:cy="884.34989" inkscape:document-units="px" inkscape:pageopacity="0.0" inkscape:pageshadow="2" inkscape:window-height="924" inkscape:window-maximized="1" inkscape:window-width="1280" inkscape:window-x="0" inkscape:window-y="28" inkscape:zoom="0.20031052" pagecolor="#ffffff" showgrid="false">
	</sodipodi:namedview>
<g id="g3298" transform="matrix(4.1030005,0,0,4.1030005,-784.27251,-540.32916)">
	<g id="g3276">
		<g id="g4196" transform="translate(-290.43647,304.95931)">
			<g id="g4054">
				<g class="st1">
					<path class="st2" d="M497.9-155v-7.2h5.3v1.2h-3.9v1.6h3.6v1.2h-3.6v1.9h4v1.2H497.9z"/>
				</g>
				<g class="st1">
					<path class="st2" d="M503.7-156.8v-1.4h2.7v1.4H503.7z"/>
				</g>
				<g class="st1">
					<path class="st2" d="M506.3-155l2.4-3.7l-2.2-3.4h1.7l1.4,2.3l1.4-2.3h1.7l-2.2,3.5l2.4,3.7h-1.7l-1.6-2.5L508-155H506.3z"/>
				</g>
			</g>
			<g id="path4062">
				<path inkscape:connector-curvature="0" sodipodi:nodetypes="ccccccccccccccccccccccc" class="st2" d="M512.1-135.7l0-1.3l6-3.6
					L518-148l-6-3.4l0-1.4l-0.9,0v1.3l-5.2,3l-5.3-3.1l0-1.3l-0.9,0v1.3l-6,3.4l-0.1,7.6l6,3.5l0,1.2l0.9,0l0-1.3l5.2-3l5.3,3l0,1.3
					L512.1-135.7z"/>
				<path class="st2" d="M511-135.7C511-135.7,511-135.7,511-135.7C511-135.7,511-135.7,511-135.7l0-1.3l-5.2-3l-5.1,3l0,1.3
					c0,0,0,0,0,0c0,0,0,0,0,0l-0.9,0c0,0,0,0,0,0l0-1.2l-6-3.5c0,0,0,0,0,0l0.1-7.6c0,0,0,0,0,0l6-3.4v-1.3c0,0,0,0,0,0c0,0,0,0,0,0
					l0.9,0c0,0,0,0,0,0l0,1.3l5.2,3l5.2-3v-1.3c0,0,0,0,0,0c0,0,0,0,0,0l0,0l0.9,0c0,0,0,0,0,0l0,1.4l6,3.4c0,0,0,0,0,0l0.1,7.4
					c0,0,0,0,0,0l-6,3.6l0,1.2c0,0,0,0,0,0L511-135.7C511-135.7,511-135.7,511-135.7z M505.8-140C505.8-140,505.8-140,505.8-140
					l5.3,3c0,0,0,0,0,0l0,1.3l1,0l0-1.2c0,0,0,0,0,0l6-3.6L518-148l-6-3.4c0,0,0,0,0,0l0-1.4l-0.9,0v1.3c0,0,0,0,0,0l-5.2,3
					c0,0,0,0,0,0l-5.3-3.1c0,0,0,0,0,0l0-1.3l-0.8,0v1.3c0,0,0,0,0,0l-6,3.4l-0.1,7.5l6,3.5c0,0,0,0,0,0l0,1.2l0.9,0l0-1.2
					c0,0,0,0,0,0L505.8-140C505.8-140,505.8-140,505.8-140z"/>
			</g>
			<g id="path4074">
				<path inkscape:connector-curvature="0" sodipodi:nodetypes="ccccccc" class="st0" d="M500.3-149.8l4.8,2.8l0,5.6l-4.9,2.9
					l-4.9-2.8l0-5.7L500.3-149.8z"/>
				<path class="st3" d="M500.2-138.5L500.2-138.5l-4.9-2.8v0l0-5.7l0,0l4.9-2.7l0,0l4.8,2.8v0l0,5.6L500.2-138.5z M495.4-141.4
					l4.9,2.8l4.8-2.9l0-5.5l-4.8-2.8l-4.9,2.7L495.4-141.4z"/>
			</g>
			<g id="path3266">
				<path inkscape:connector-curvature="0" sodipodi:nodetypes="ccccc" class="st2" d="M496.3-146.7l0.5,0.8l3.7-2.2l-0.4-0.8
					L496.3-146.7z"/>
				<path class="st2" d="M496.7-145.9l-0.5-0.8l0,0l3.8-2.2l0.5,0.8l0,0L496.7-145.9z M496.3-146.7l0.5,0.8l3.7-2.1l-0.4-0.7
					L496.3-146.7z"/>
			</g>
			<g id="path4074-5">
				<path inkscape:connector-curvature="0" sodipodi:nodetypes="ccccccc" class="st0" d="M511.7-150.1l4.8,2.8l0,5.6l-4.9,2.9
					l-4.9-2.8l0-5.7L511.7-150.1z"/>
				<path class="st3" d="M511.6-138.8L511.6-138.8l-4.9-2.8v0l0-5.7l0,0l4.9-2.7l0,0l4.8,2.8v0l0,5.6l0,0L511.6-138.8z M506.8-141.7
					l4.9,2.8l4.8-2.9l0-5.5l-4.8-2.8l-4.9,2.7L506.8-141.7z"/>
			</g>
			<g id="path3266-0">
				<path inkscape:connector-curvature="0" sodipodi:nodetypes="ccccc" class="st2" d="M507.6-146.8l0.5,0.8l3.7-2.2l-0.4-0.8
					L507.6-146.8z"/>
				<path class="st2" d="M508.1-145.9l-0.5-0.8l0,0l3.8-2.2l0.5,0.8l0,0L508.1-145.9z M507.7-146.7l0.5,0.8l3.7-2.1l-0.4-0.7
					L507.7-146.7z"/>
			</g>
			<g id="path4054">
				<path inkscape:connector-curvature="0" class="st2" d="M514.8-146.4l0.9,0l0,4.5l-3.9,2.3l-0.4-0.8l3.5-2L514.8-146.4z"/>
				<path class="st2" d="M511.8-139.5l-0.5-0.9l3.5-2l0-4.1l0.9,0v0l0,4.5l0,0L511.8-139.5z M511.4-140.3l0.4,0.8l3.9-2.3l0-4.4
					l-0.8,0l0,4L511.4-140.3z"/>
			</g>
			<g id="path4054-2">
				<path inkscape:connector-curvature="0" sodipodi:nodetypes="ccccccc" class="st2" d="M503.4-146.4l1,0l0,4.5l-3.9,2.3l-0.5-0.8
					l3.5-2L503.4-146.4z"/>
				<path class="st2" d="M500.5-139.5L500.5-139.5l-0.5-0.8l3.5-2v-4.1l1,0v0l0,4.5l0,0L500.5-139.5z M500-140.3l0.5,0.7l3.9-2.3
					l0-4.4l-0.9,0v4.1l0,0L500-140.3z"/>
			</g>
			<g id="path4064">
				
					<path sodipodi:cx="500.03137" sodipodi:cy="28.692717" sodipodi:rx="1.3572516" sodipodi:ry="1.3241479" sodipodi:type="arc" class="st2" d="
					M496.1-147.3c0,0.8-0.6,1.4-1.4,1.4s-1.4-0.6-1.4-1.4s0.6-1.4,1.4-1.4C495.5-148.7,496.1-148.1,496.1-147.3z"/>
			</g>
			<g id="path4064-8">
				
					<path sodipodi:cx="500.03137" sodipodi:cy="28.692717" sodipodi:rx="1.3572516" sodipodi:ry="1.3241479" sodipodi:type="arc" class="st2" d="
					M496-141.1c0,0.8-0.6,1.4-1.4,1.4c-0.8,0-1.4-0.6-1.4-1.4s0.6-1.4,1.4-1.4C495.4-142.5,496-141.9,496-141.1z"/>
			</g>
			<g id="path4064-2">
				
					<path sodipodi:cx="500.03137" sodipodi:cy="28.692717" sodipodi:rx="1.3572516" sodipodi:ry="1.3241479" sodipodi:type="arc" class="st2" d="
					M507.3-140.8c0,0.8-0.6,1.4-1.4,1.4c-0.8,0-1.4-0.6-1.4-1.4s0.6-1.4,1.4-1.4S507.3-141.6,507.3-140.8z"/>
			</g>
			<g id="path4064-0">
				
					<path sodipodi:cx="500.03137" sodipodi:cy="28.692717" sodipodi:rx="1.3572516" sodipodi:ry="1.3241479" sodipodi:type="arc" class="st2" d="
					M518.6-140.9c0,0.8-0.6,1.4-1.4,1.4c-0.8,0-1.4-0.6-1.4-1.4s0.6-1.4,1.4-1.4C518-142.3,518.6-141.7,518.6-140.9z"/>
			</g>
		</g>
	</g>
</g>
</svg>
